<svg xmlns="http://www.w3.org/2000/svg" width="521.23" height="69.24" viewBox="0 0 521.23 69.24">
  <defs/>
  <g>
    <path fill="#091726" fill-rule="evenodd" d="M15.67 39.56a.34.34 0 01.3-.16.67.67 0 01.41.2c.16.16.4.36.55.2a1.33 1.33 0 01-.25-.41 2.08 2.08 0 001 .06c-.12-.1-.05-.28 0-.4s.21-.25.17-.4-.27-.2-.44-.18-.36.07-.5 0a.35.35 0 01-.08-.44.55.55 0 01.39-.27.88.88 0 01.82.24c.18.19.27.45.44.63s.53.27.67.06a.39.39 0 00-.09-.49 1 1 0 00-.5-.2.76.76 0 01-.33-.11.25.25 0 01-.11-.31.19.19 0 01.06-.07c.2-.18.53 0 .71.16a6.51 6.51 0 00.51.64.81.81 0 00.78.11c.25-.1.44-.42.28-.63s-.51-.18-.59-.41a.48.48 0 10-.49-.75c-.08.11-.17.29-.31.25v-.53a.59.59 0 00-.45.2.74.74 0 01-.43.25c-.17 0-.35-.18-.26-.32-.17-.08-.34.09-.48.21s-.4.2-.48 0a1.1 1.1 0 000-.54c-.18 0-.27.22-.37.37s-.52.43-.73.23a.46.46 0 01.13-.66 1.37 1.37 0 01.75-.14.74.74 0 01-.32-.22.26.26 0 010-.36.33.33 0 01.17 0l.69-.09c-.06-.23-.26-.38-.37-.6s0-.55.23-.53.27.72.6.72a.86.86 0 01.15-.68c.11-.21.19-.5 0-.67a1.48 1.48 0 00-.34-.21c-.12-.07-.2-.24-.1-.34s.24 0 .35-.09.12-.35 0-.53c-.23 0-.56 0-.56-.21s.17-.24.32-.25 1.39.83 1.23.14a.52.52 0 00-.46-.32 3.77 3.77 0 01-.58 0c-.19-.05-.37-.23-.33-.42l1.54.06c.1 0 .22 0 .28-.08s-.12-.38-.34-.45-.46-.3-.3-.45l1.78.3c.23 0 .56 0 .54-.25s-.49-.32-.43-.56a.27.27 0 01.13-.17c.21-.14.48-.21.68-.37a.41.41 0 10-.46-.66c-.18.12-.31.3-.49.42a1 1 0 01-1.54-.74c-.33.23-.24.78-.54 1a.92.92 0 01-1-.06.5.5 0 01-.18-.28c-.07-.24.2-.45.44-.51s.52-.09.67-.29a.78.78 0 01-.13-.89 2.33 2.33 0 01.63-.73l.56.81c.28-.21.32-.68.65-.82a.65.65 0 01.75.32c.16.24.24.54.4.79a1.34 1.34 0 001.46.5c-.23 0-.34-.31-.34-.55s.08-.46.07-.7a.67.67 0 00-.05-.19c-.23-.39-1.06.07-1.2-.36-.06-.19.1-.36.22-.52s.19-.43 0-.51-.31.07-.45.17a1 1 0 01-1.1 0 2.32 2.32 0 00.49-.5l-1.17-.1c-.09-.28.26-.5.55-.54s.64 0 .81-.29a.59.59 0 01-.57-.74c.13-.34.73-.37.83 0 .06.19 0 .41.05.6s.34.26.57.29.28 0 .36-.06-.06-.44 0-.65.46-.18.62 0a6.24 6.24 0 01.35.68.71.71 0 00.89.25.53.53 0 00.07-.85 1.75 1.75 0 00-.69-.1c-.23 0-.48-.28-.36-.48a.39.39 0 00.63-.2.52.52 0 00-.44-.58c-.25 0-.52.07-.77 0s-.48-.41-.26-.55a.66.66 0 00.19-.09c.13-.11 0-.32-.17-.36s-.34 0-.49-.05a.55.55 0 01-.23-.8 1.36 1.36 0 01.76-.53c-.32 0-.75-.06-.8-.38s.24-.46.49-.53a2 2 0 00.76-.22.48.48 0 11.21-.92c.25.12.39.44.66.47a.47.47 0 01.25-.48.46.46 0 01.53.12 1 1 0 00-.25.69.58.58 0 00.46.52.42.42 0 00.47-.44 1.19 1.19 0 00-.26-.41c-.1-.14-.15-.34 0-.45l.93-.17a.44.44 0 000 .7.43.43 0 00.63-.3c0-.26-.17-.48-.38-.64a1.4 1.4 0 01-.53-.55c-.08-.25.13-.59.38-.51s.21.22.29.36a.5.5 0 00.47.26c.19 0 .33-.28.2-.42s-.36-.11-.41-.28.4-.34.38-.58-.36-.18-.58-.23a.48.48 0 01-.38-.48.5.5 0 01.41-.46.49.49 0 001-.09.78.78 0 010-.31A.46.46 0 0127 14c.43-.1 1-.08 1.16.31A.71.71 0 0128 15a2 2 0 01-.67.43 1.12 1.12 0 01.62.2.39.39 0 010 .58c-.12.07-.28.05-.4.14s-.08.43.11.53a1 1 0 00.63.05 1.1 1.1 0 00.91.93 1.2 1.2 0 01.71-.72c.33-.09.76.13.75.48s-.37.55-.7.59a5.55 5.55 0 00-1 .08 1 1 0 01-.86 1.22.94.94 0 001.1.63c-.25-.21 0-.72.32-.64s.39.79.78 1a1.15 1.15 0 01.19-.82c.2-.21.65-.15.67.14 0 .46-.95.51-.85 1a1 1 0 01.6 0 .35.35 0 01.22.48c-.1.15-.32.16-.51.14l-.62-.1c-.25 0-.56 0-.69.2a.47.47 0 00.27.61 1.29 1.29 0 00.73.05.76.76 0 00-.38.39.35.35 0 00.19.46c.19 0 .36-.12.51-.26s.38-.24.52-.09c0 .43-.15.48-.34.83a.41.41 0 00.2.55.33.33 0 00.17 0c.14 0 .19-.19.23-.32a1.05 1.05 0 01.7-.72c.34-.07.74.24.66.57a.54.54 0 01-.19.3 1.19 1.19 0 01-1 .3.89.89 0 00-.32 0 .22.22 0 00-.21.2c0 .11.1.18.18.26a.5.5 0 01-.05.66.27.27 0 01-.16.08c-.25 0-.23-.45-.46-.54s-.47.4-.76.35-.27-.33-.46-.41a.53.53 0 00-.25 0 1.39 1.39 0 00-.72.25.62.62 0 00-.24.67.4.4 0 00.62.18 1.61 1.61 0 00.17-.28c.06-.09.19-.17.29-.11s.09.21.17.29.38-.06.56-.17a.56.56 0 01.65.06.46.46 0 010 .63 2.24 2.24 0 01.73-.12.45.45 0 01.28.07c.21.17 0 .51-.17.7s-.37.54-.14.7.35 0 .47-.13.17-.32.28-.46a.37.37 0 01.48-.12c.16.13.09.39 0 .55a1.91 1.91 0 00-.39.46 6 6 0 00.7-.4.6.6 0 01.74.07.53.53 0 01-.24.72 1.54 1.54 0 01-.85.07 1.23 1.23 0 01.5.16.37.37 0 01.02.4c-.12.2-.43.16-.65.08a2.9 2.9 0 00-.86-.24.71.71 0 00-.47.12.35.35 0 00-.07.45c.14.19.44.11.65 0a1 1 0 01.6-.11c.21.05.38.27.29.46s-.38.26-.39.48.25.28.41.2a.9.9 0 00.36-.41.7.7 0 01.41-.35.37.37 0 01.38.5c-.08.16-.26.24-.39.35s-.22.35-.08.46c.24-.07.44-.26.67-.34s.58 0 .61.24-.27.42-.52.44-.55 0-.72.22c0 .21.36.29.36.5s-.2.23-.35.24a1.44 1.44 0 01-.79-.18.72.72 0 00-.32-.13c-.29 0-.4.39-.38.68a.44.44 0 000 .22c.1.16.36.15.53 0a5.19 5.19 0 01.46-.36c.18-.09.45-.05.5.15s-.61.46-.58.81c0 .2.32.28.49.16a.67.67 0 00.22-.56.31.31 0 01.08-.26c.07-.07.19 0 .29 0s.29.11.32.25-.27.35-.4.55a.39.39 0 00.59.5c.18-.16.17-.43.25-.66s.38-.43.53-.25c0 .33-.09.66-.14 1a1.11 1.11 0 01.61-.5c.26-.05.58.21.47.46s-.18.18-.24.29a.32.32 0 00.52.37c.22-.25 0-.66.09-1 .21-.48.75-.16.72.28a1 1 0 01-.68.86c-.2 0-.5.12-.43.31a2.86 2.86 0 011 0 2.59 2.59 0 00-.21.61c-.08.21-.31.39-.49.28s-.05-.17-.25-.25-.38.35-.61.5-.58 0-.83-.2-.68-.23-.79.05 0 .32 0 .48-.5.24-.79.19-.72 0-.69.33.49.48.35.72-.37.09-.55 0a.81.81 0 00-.59-.06.36.36 0 00-.22.49c.13.24.58.25.58.52s-.41.3-.49.54a.34.34 0 00.23.39.94.94 0 00.5 0c.23 0 .5-.1.57-.32a2.71 2.71 0 000-.41.43.43 0 01.59-.27.4.4 0 01.05.63.69.69 0 011-.1.68.68 0 010 1c.23.14.51 0 .76-.08s.63 0 .62.27c0 .41-.87.31-.89.72 0 .2.24.33.44.28a1.18 1.18 0 00.5-.33.7.7 0 01.54-.24.42.42 0 01.12.75 3.38 3.38 0 01-.34.11c-.1.05-.18.2-.1.29a.24.24 0 00.18.05c.28 0 .62-.11.78.12a.42.42 0 01-.08.48 1.24 1.24 0 01-.45.25 1.08 1.08 0 00.67.13 1 1 0 01.66.16c.18.15.18.5 0 .57s-.44-.23-.68-.36a.52.52 0 00-.57.07 5.85 5.85 0 00.82.44.75.75 0 00-.86.22.47.47 0 00.3.72c.29 0 .51-.3.81-.31a.45.45 0 01.43.33.52.52 0 01-.21.52c-.13.08-.31.13-.35.28s.17.32.35.3a2.3 2.3 0 00.48-.22.43.43 0 01.5 0c.19.21-.06.53-.3.67s-.55.32-.5.6.41.34.66.26a6 6 0 01.74-.33c.26-.06.61.12.56.39s-.63.33-.76.65c.48.16 1-.48 1.45-.26a.46.46 0 01.1.74 1.15 1.15 0 01-.76.11c-.26 0-.58.05-.66.3a.52.52 0 11.15.9 1 1 0 01-.51-.61c-.18.07-.26.27-.37.42s-.36.26-.46.1.19-.49 0-.66a1.83 1.83 0 00-1 .21.49.49 0 00-.47-.72 1 1 0 01-.21.45.37.37 0 01-.45.09.44.44 0 01-.15-.45 1.06 1.06 0 000-.5c-.05-.16-.27-.27-.39-.16-.2.37.53.77.33 1.14a.35.35 0 01-.48.09.65.65 0 01-.25-.47c-.16.24-.45.51-.68.34s-.15-.4-.16-.63-.26-.5-.43-.34c0 .35-.1.81-.44.81s-.47-.48-.45-.84a.86.86 0 01-.21.56.36.36 0 01-.54 0c-.1-.14 0-.34-.09-.51a.39.39 0 00-.53-.22.26.26 0 00-.13.16c-.08.31.53.37.58.69s-.25.37-.45.3a1 1 0 01-.46-.45.88.88 0 01-.25.39.31.31 0 01-.42 0c-.08-.13-.05-.35-.2-.37s-.19.12-.28.19a.37.37 0 01-.5-.11 1.1 1.1 0 01-.16-.53c-.09-.07-.22 0-.26.13a2 2 0 01-.1.32.39.39 0 01-.6 0 .88.88 0 01-.16-.67c-.12-.08-.26.1-.24.24s.12.27.14.41c.06.4-.45.6-.85.65a6 6 0 00.55.45c.16.18.19.52 0 .6s-.31 0-.45-.12-.36-.11-.44 0a.65.65 0 00.64.44c.08.37-.33.41-.54.58s-.25.34-.27.63a19.19 19.19 0 00-.07 2.4c0 1.65.14 3.3.13 5h-2.17a71.16 71.16 0 00.28-7.21.24.24 0 00-.07-.16.37.37 0 00-.15 0h-.62c.16-.19.31-.38.45-.58-.16-.19-.54.09-.71-.1s.39-.57.23-.85c-.27-.09-.63.26-.82 0a.36.36 0 01.07-.42 1 1 0 00.24-.38h-.62l.23-.67-1.15.17c-.12-.24.32-.54.14-.73a.29.29 0 00-.16-.07.74.74 0 00-.36 0 .26.26 0 00-.22.25c0 .12.12.22.13.34a.28.28 0 01-.24.24.76.76 0 01-.36-.06 2.08 2.08 0 000 .43.38.38 0 01-.18.37c-.17.06-.33-.09-.48-.18s-.43 0-.4.13a.33.33 0 00.12.17.41.41 0 01.12.39.27.27 0 01-.33.19c-.25-.08-.19-.52-.43-.63-.1.13 0 .31 0 .46s-.1.37-.25.32-.21-.24-.3-.15a.5.5 0 010 .43.33.33 0 01-.39.15.24.24 0 01-.1-.37c-.12-.1-.3 0-.41.11s-.26.24-.4.17-.11-.34 0-.45a3.64 3.64 0 01.49-.22c.16-.08.28-.3.16-.44h-.4v-.19c.15 0 .31-.13.31-.28s-.14-.26-.27-.3a2 2 0 01-.42-.11c-.13-.07-.21-.25-.12-.36s.27 0 .4.1.35 0 .34-.13-.38-.14-.43-.32.11-.21.22-.21.23.05.35.06a.47.47 0 00.47-.35.46.46 0 00-.26-.51.89.89 0 00-.82.22l.13-.74a.91.91 0 00-.81.74v-.63c-.11-.08-.27 0-.31.17s.07.69-.35.65c-.23 0-.43-.36-.65-.44s-.42 0-.63.21-.4.51-.53.2v-.22c0-.07-.37-.07-.42.12a2.22 2.22 0 000 .57c0 .2-.19.42-.36.32s-.11-.25-.07-.38a.72.72 0 00.1-.4c-.06-.27-.43-.29-.7-.25.13-.25.25-.57.07-.77s-.44-.14-.68-.11-.53 0-.63-.19a.41.41 0 01.27-.53 1.24 1.24 0 01.66 0 .85.85 0 01-.33-.26.27.27 0 01.07-.38.34.34 0 01.26 0c.25.08.45.25.69.35a.72.72 0 00.74 0c-.17-.26-.7-.08-.79-.37s.17-.35.36-.31a.84.84 0 01.44.35.27.27 0 01-.17-.41.31.31 0 01.47 0c.09.14.06.33.15.47s.54.18.71 0a1.06 1.06 0 00.13-.8c0-.19-.09-.41-.27-.44a.65.65 0 00-.34.13c-.11.06-.28.07-.34 0s.41-.5.21-.67a2.35 2.35 0 00-.53 0c-.18 0-.39-.11-.4-.29s.35-.32.59-.25.53.18.72 0a.15.15 0 00.07-.12c0-.26-.55 0-.63-.3a1.31 1.31 0 01.5-.18c-.08-.28-.61-.21-.67-.5a.32.32 0 01.22-.33.62.62 0 01.63.08c.2.16.28.42.47.58s.57.14.58-.11-.28-.32-.51-.32-.52 0-.57-.25a.87.87 0 00.67-.29c-.26-.06-.6-.24-.52-.5s.41-.23.64-.14.51.2.7 0c.08-.42-.84-.42-.82-.84a.21.21 0 01.05-.31zM26.41 19c0-.06-.09-.13-.11 0s.09.08.11 0zm.22.22c0-.13.2-.25 0-.33-.01.11-.2.21 0 .29zm-.33.55V20c.27.17.32-.38.11-.34-.01.03-.02.1-.11.07zm-3.45.12v.22h.33v-.34H23c0 .03-.06.1-.15.08zm3 0c-.12 0-.17-.17-.22 0a.11.11 0 00.22-.04zm1.23.22h.22v-.22h-.22zm-3.67.33c-.09 0-.22 0-.23.11s.22-.04.23-.15zm1.66.11c.38.34.34-.41 0 0zm-1.44.45a.33.33 0 00-.22-.34c.01.14-.02.34.22.34zm.78-.11h.22v-.23h-.22zm-1.78.55c0-.14.19-.1.22-.22-.17 0-.47-.48-.56-.22.31-.09.11.37.34.4zm2 .45c.31.18.31-.48.11-.45-.03.11-.16.18-.11.41zm3.34.22c.29.08.21-.23.33-.33q-.36-.07-.3.29zm-1.23.67c.14 0 .07-.16 0 0zm.67.44c.19.2.44 0 .44-.33-.29-.07-.47 0-.44.29zm-.33.22c0-.06-.09-.12-.12 0s.09.09.12-.04zm3.11 1a.11.11 0 00-.22 0c.12-.05.17.13.22-.03zm-6 .77c.58-.17.44.38.67.56.56-.56-.25-1.17-.78-1.33-.08.35.16.39.1.74zm-2-.44c0-.12-.08-.29-.11-.11s.08.26.1.08zm5.56 1c0-.26-.11-.48-.33-.56-.01.27-.11.67.32.53zm-2.44-.33c0-.07-.09-.13-.11 0s.08.09.1-.03zm-.11.44v.22h.22c.12-.16.12-.27-.11-.33-.02.04-.03.1-.12.08zm1.33 0c-.27.37.37-.27 0 0zm-1.45.45c-.08 0-.22 0-.22.11s.21-.04.21-.14zm2.9.11c0-.06-.09-.13-.12 0s.08.09.14-.03zm.11.22c.14 0 .15.14.33.11a.31.31 0 00-.22-.33c-.01.08-.1.1-.12.19zm-5.56.56c.34-.18.43-.1.66-.23-.22 0-.14-.3-.44-.22-.01.23-.31.11-.23.42zm2.22.11a.31.31 0 00-.22-.34c0 .15-.03.36.21.31zm5.34.11c0-.3-.23-.29-.45-.34-.11.33.36.13.44.31zm-9.68.11c-.08 0-.22 0-.22.11s.21-.03.21-.14zm-.55.11c-.09 0-.22 0-.22.11s.2-.03.21-.14zm3.45.11c.33.31-.31-.34 0 0zm6.44 0c-.11 0-.13-.09-.22-.11-.31.15.16.34.21.08zm-7.67.56c0-.06-.09-.13-.11 0s.08.09.1-.03zm6.9-.11c-.09 0-.22 0-.23.11s.25-.04.25-.14zm-4.56.89c.22-.36.3-.82-.34-.78-.08.39.04.67.33.75zm7.45-.78h-.34c-.08 0-.22 0-.22.11.15-.09.57.1.55-.14zm-5.56.22a.11.11 0 00-.22 0c.11-.04.16.13.21-.03zm-4.67.33c0-.06-.09-.12-.11 0s.08.12.1-.03zm5.89.45c.43.09.43-.24.56-.45-.21 0-.25-.12-.45-.11a.77.77 0 00-.12.53zm2.22-.45c-.13 0-.31 0-.33.12.12 0 .31 0 .32-.15zm-4.44.23c0-.07-.09-.13-.11 0s.08.09.1-.03zm1.33.66c0-.24.4 0 .56-.11v-.44c-.46-.29-.88.14-.57.52zm6.45 1.56c.21.34.62-.22.33-.33-.02.18-.37 0-.34.3zm-12.9 0c0-.12-.08-.29-.11-.11s.08.26.1.08zm12.57.44c-.21 0-.08-.36-.34-.33-.12.25.23.56.33.3zm-8.34.56c0-.09-.3-.13-.34 0s.43.21.33-.03zm-4.56 1.45c.44-.18.68.42.89.11-.22-.34-.71-.4-.89-.78.2-.16.3-.6-.11-.67a12.8 12.8 0 00.1 1.31zm-1.11-.89H19v-.23h-.22zm2 .33c-.16 0-.19-.18-.34-.22-.1.2.28.47.33.19zm-1.67.22c-.09-.16-.36-.16-.56-.22-.15.33.98.26.55.19zm4.89 1c.3 0 .39.28.67.34 0-.14.12-.07.22 0 0-.18 0-.39.22-.34-.12-.47-.58-.6-.66-1.11-.14.36-.42.57-.42 1.08zm5.9-.44c0-.36.72-.09.55-.67-.34-.02-.9.34-.56.67zm-7.68-.45c0-.06-.09-.12-.11 0s.08.1.1-.03zm1 .12c0-.12-.08-.29-.11-.12s.08.26.1.09zm-4 .55c0-.21.13-.24.11-.44a.23.23 0 10-.12.41zm3.45.22c.5.06.36-.58 0-.55-.22.18-.02.25-.01.52zm1.22-.11c-.09 0-.22 0-.22.11s.21-.03.21-.14zm7.56.45c0-.06-.09-.13-.11 0s.08.09.1-.03zm-13.79.78c.3 0 .66.06.67-.23-.16-.18-.68-.13-.68.2zm11-.23a.11.11 0 00-.22 0c.02.11.12.04.22-.03zm6 .23c0-.07-.09-.13-.11 0s.1.09.12-.03zm-16 .33c0-.16.19-.19.23-.33-.24-.13-.51.25-.24.3zm11.57.33c0-.26.39-.2.33-.55-.28-.08-.53.5-.34.52zm2.11-.33c.07 0 .13 0 .11.11h.23c0-.13 0-.32-.12-.33s-.2.07-.23.19zM19.63 36c-.31.34.33-.3 0 0zM32 35.86c-.09 0-.22 0-.22.11s.22.03.22-.11zm-1.34.56c.37 0 1.23-.11.89-.45-.22.25-.84.03-.92.45zm.89.44c.32 0 .57 0 .67-.22-.22.06-.8-.18-.7.22zm-.44.45v.44c.36.06.52-.08.78-.11-.01-.4-.61-.5-.81-.33zm-9.34.11c-.09 0-.22 0-.22.11s.19-.01.19-.11zm1.78.55c0-.28-.17-.35-.34-.44.02.21.01.47.31.47zm.89-.33c-.27.37.37-.27 0 0zm4.78.89c.35 0 .63-.48.22-.56.07.36-.2.35-.25.56zm1-.22c-.14 0-.15-.15-.33-.12-.21.28.34.33.3.12zm-11.9.44c.34.3-.3-.34 0 0zm8.12.56c-.13 0-.17-.17-.22 0a.11.11 0 00.19 0zm1.78.22c.25 0 .42 0 .44-.22-.28-.03-.45.02-.47.22zm-4.15.47c.18-.31-.48-.3-.44-.11.21-.05.24.11.44.11zm8.9.67c.36.1.16-.36.33-.44-.3-.07-.36.12-.3.41zm-8.23.56c-.28 0-.08.51.22.33-.18-.36-.05-.6 0-1-.16 0-.18-.18-.33-.22-.37.24-.1.58.11.86zm1.78-.34v.23h.22c.13-.16.12-.28-.11-.34-.01.04-.02.1-.11.08zm-10.34.23c-.65-.33-.29.27 0 0zm1.67.55c-.15 0-.11-.19-.23-.22-.12.2.18.55.23.19zm12.45.22c.33.17.33-.49 0-.33zm1.45.12a.5.5 0 01.11-.34c-.14 0-.16-.14-.34-.11a.52.52 0 00.23.44zm1.78-.34s-.69-.16-.34 0c-.05-.05.46.18.34-.03zm-10 .11c-.45-.39-.26.36 0 0zm9.47-.14c-.13 0-.32 0-.33.11s.33.02.33-.11zm-16.79.11c-.09 0-.22 0-.22.11s.19 0 .19-.11zm12.23.45h.45c0-.17 0-.41-.12-.45-.06.25-.33.25-.36.45zm5.45.11c.6.13.12-.74 0-.45.26.03-.18.2-.03.45zm-18.57-.22c-.13 0-.32 0-.33.11.1-.02.28.02.3-.11zm17.79.33a.54.54 0 00.11.33c.3 0 .37-.15.34-.44a.61.61 0 00-.48.11zm-.56.22c.12 0 .14.09.23.11 0-.17 0-.38-.23-.33zm2.67.23h.34c0-.26 0-.42-.23-.45-.06.15-.18.21-.14.45zm1.34 0c-.26 0-.47-.71-.78-.34.22.05.53.62.75.34zm-6-.23v.23h.23c0-.07 0-.14.11-.12v-.22h-.23c-.04.07-.05.13-.15.11zm3.78.23a.11.11 0 00-.22 0c-.01.13.09.06.18 0zm-17.45.33c0-.07 0-.13.11-.11 0-.14 0-.27-.23-.22-.02.13-.05.31.08.33zm3.33.11c-.08-.18-.35-.17-.33-.44h-.34v.22c.12 0 .14.09.23.11.03-.38.33.49.4.11zm13.78.11c.15.23.53-.25.45.33.45-.28.41.14.77.23.23-.22.49-.81.11-1-.33.45-1.18.02-1.33.44zm-18.13.67c-.08-.34.2-.33.12-.67-.2-.1-.33-.27-.56-.33a.64.64 0 00.41 1zm13.68-.89a.11.11 0 00-.22 0c.09-.01.14.16.19 0zm-7.45.11c0 .37-.48-.29-.55.11.07.32.89.23.52-.11zm-4.22.56c-.05.48.13.75.55.77.29-.34.35-.33.78-.11.1-.73-.67-.59-.89-1-.14.15-.32.22-.47.34zm-1.88.44c.44.17.72-.38.44-.56-.06.32-.44.31-.44.56zM35.53 44c0 .43.41.4.66.55 0-.31-.37-.21-.22-.66a.59.59 0 00-.44.11zm-13.68.22c.17 0 .41 0 .44-.11-.14-.17-.41-.17-.44.09zm10.23.22c.21-.05.48 0 .44-.33-.35-.11-.34.15-.44.31zm2.67-.22c-.09 0-.22 0-.22.11s.22-.02.22-.13zm-17.13.67c-.29 0-.39-.28-.66-.34-.06.31.51.57.66.32zm17.13-.23c-.57.27.38.29 0 0zM19.63 45c.3.14.38-.44.22-.11-.16-.03-.43 0-.22.11zm1.22-.22c-.09 0-.22 0-.22.11s.22-.03.22-.13zm-5.12.33c-.13 0-.31 0-.33.11.13-.04.32 0 .33-.13zm.56.33c.17 0 .41 0 .44-.11-.26.1-.47-.39-.55-.11.09 0 .13.07.11.2zm18.13-.11c-.18-.06-.6-.43-.78-.11.28-.07.63.37.78.09zm-14.68.34c.27-.13-.13-.53-.23-.23.15-.02.11.18.23.21zm-2 .11c.27 0 .34-.17.44-.34-.29-.05-.48.02-.44.32zM17 46a.42.42 0 00.44-.45h-.33c-.02.19-.17.23-.11.45zm-4-.11c.09 0 .13.09.11.22a4.66 4.66 0 001.12 0c-.04-.47-1.13-.65-1.23-.24zm13.68.55c0-.19.34-.68.11-.77-.17.09-.47.58-.16.75zm-11 .56c.28 0 .35-.18.56-.22 0-.4 0-.77.44-.67 0-.29-.15-.37-.44-.33-.03.61-.78.44-.62 1.22zm20.13-1.11a.11.11 0 00-.22 0c.06-.03.11.11.16-.02zm-21.35.44c-.05.27.2.24.11.56.28 0 .34-.18.56-.22-.08-.35-.08-.22 0-.56-.41-.11-.5.14-.73.2zm6-.11c0-.06-.09-.13-.11 0s.03.11.05-.02zm-.89.45c-.32 0-.19-.48-.55-.45-.34.17.27.78.49.43zm18.13-.23a.11.11 0 00-.22 0c-.04.12.06.05.16-.02zm-9.9.23a.32.32 0 00.34-.23c-.24-.01-.45-.03-.4.21zm-13.8.2c0-.16.19-.19.23-.34-.23-.09-.55.29-.23.34zM27 47c.22 0 .48 0 .45-.33-.23-.22-.45.01-.45.33zm-2.44 0a.31.31 0 00-.22-.33.3.3 0 00.18.33zm11.12-.11c.22 0 .29.22.44.33.24-.22-.41-.83-.48-.35zm-12.34 0c-.34.37.41.34 0 0zm1.66.31c0-.13.2-.25 0-.33 0 .13-.23.25 0 .33zm-3.11.11c0 .32.19.48.56.45v-.22c0-.07 0-.14-.12-.12s0 .14-.11.12 0-.32-.11-.34-.11.13-.26.11zm1.33 0c-.08 0-.22 0-.22.11s.18 0 .18-.11zm-2.33.56c.12.16.51-.4.11-.33v.11c0 .01-.15.23-.15.22zm15.68 0c-.2 0-.56-.11-.45.22a.66.66 0 00.78.11 1.07 1.07 0 00-.33-.66zM20.29 48a.11.11 0 00-.22 0c.02.11.12.05.22 0zm3.56 0a.11.11 0 00-.22 0c.02.11.12.05.22 0zm-.11.89c.27.05.24-.2.56-.11q-.11-.43.33-.33c0-.26-.11-.48-.33-.56-.05.19-.15 0-.34 0-.02.43-.15.42-.22.98zm3.78-.44q.53.07.45-.45c-.3.13-.66-.21-.67 0 .19 0 .25.17.22.43zm1.22-.23c.54-.05 1 0 1 .45.32 0 .77.09.78-.22a.19.19 0 01-.11-.23c-.18-.32-.6.52-.55-.22-.46.18-.86-.2-1.12.2zm-9.23.89c-.37-.08-.43.43-.11.45-.08-.42.29-.38.45-.56 0 .13 0 .32.11.33s0-.13.11-.11.09-.13.11-.22c-.62 0-.06-.7-.33-.89-.04.39-.49.38-.34.98zm6.9-.66c.32.16.32-.5 0-.34zm5.78 0c.25 0 .42 0 .45-.23a.27.27 0 00-.45.21zm5.12 0c0 .5.46.28.89.22.06-.3-.46-.57-.56-.34.3.08-.23.34-.33.1zm-14.46.11c0-.07-.09-.13-.11 0s.09.1.11-.02zm15.79.44c0-.28-.17-.35-.33-.44-.02.25.17.32.33.44zm-20 .78c.3.08.22-.23.34-.33h-.34zm-.44.33c.18 0 .06.31.22.34.13-.14.32-.2.22-.56-.27-.05-.43.01-.46.2zm6.12.11c.34-.08.32.2.66.12.12-.65-.65-.51-.68-.14zm2.89.34c.18-.31-.48-.31-.45-.11.13.01.24.13.43.09zM51.24 35.48a.35.35 0 01.3-.16.6.6 0 01.41.2c.16.15.4.36.55.2a1.33 1.33 0 01-.25-.41 2.08 2.08 0 001 .06c-.11-.1 0-.29 0-.4s.21-.26.17-.4-.27-.2-.43-.18a.77.77 0 01-.5 0 .37.37 0 01-.09-.45.63.63 0 01.4-.27.9.9 0 01.81.25c.18.19.27.45.45.63s.52.27.67.06a.39.39 0 00-.1-.49.93.93 0 00-.49-.2.8.8 0 01-.34-.11.26.26 0 01-.11-.31.13.13 0 01.06-.07c.2-.18.54 0 .72.16a5.23 5.23 0 00.5.64.83.83 0 00.79.11c.24-.1.43-.42.27-.63s-.51-.18-.59-.41a.48.48 0 10-.49-.75c-.08.11-.17.29-.3.25v-.54a.63.63 0 00-.45.21.76.76 0 01-.43.25c-.17 0-.35-.18-.26-.32-.17-.08-.34.08-.48.21s-.4.2-.48 0a1 1 0 000-.54c-.18 0-.27.21-.36.37s-.52.43-.73.22a.43.43 0 01.14-.66 1.31 1.31 0 01.74-.14.75.75 0 01-.32-.23.27.27 0 010-.35.33.33 0 01.17 0l.7-.09c-.06-.23-.27-.39-.37-.6s0-.55.22-.53.27.71.6.72a.85.85 0 01.15-.68c.11-.22.19-.5 0-.68a1.75 1.75 0 00-.35-.2c-.11-.07-.2-.24-.1-.34s.24 0 .36-.09.12-.35 0-.53c-.23.05-.56 0-.56-.21s.17-.24.32-.25 1.4.83 1.23.14a.5.5 0 00-.45-.32 2.88 2.88 0 01-.59-.05c-.19-.05-.37-.22-.33-.41l1.54.05a.33.33 0 00.28-.07c.14-.18-.12-.38-.33-.45s-.46-.3-.3-.45l1.77.3c.23 0 .57 0 .55-.25s-.5-.32-.44-.57a.26.26 0 01.13-.16c.22-.14.48-.21.69-.37s.32-.5.13-.68a.5.5 0 00-.6 0c-.17.13-.31.31-.48.43a1 1 0 01-1 .09 1 1 0 01-.55-.83c-.34.22-.25.78-.55 1a.9.9 0 01-1 0 .57.57 0 01-.29-.28c-.06-.25.2-.45.44-.51s.52-.09.68-.29a.77.77 0 01-.13-.9 2.16 2.16 0 01.63-.72l.55.81c.28-.21.32-.68.65-.82a.65.65 0 01.75.32c.16.24.24.54.41.78a1.31 1.31 0 001.45.51.53.53 0 01-.34-.55c0-.23.08-.46.07-.7a.67.67 0 000-.19c-.23-.39-1.06.07-1.2-.36-.06-.19.11-.36.23-.52s.18-.43 0-.51-.31.07-.44.17a1 1 0 01-1.1 0 2.52 2.52 0 00.48-.5l-1.14-.09c-.08-.29.26-.5.56-.55s.63 0 .8-.28a.6.6 0 01-.57-.74.47.47 0 01.84 0v.59c0 .18.35.27.57.3s.28 0 .36-.06-.05-.45 0-.65.47-.19.63 0 .2.46.35.67a.72.72 0 00.89.26.53.53 0 00.06-.85 2 2 0 00-.69-.11c-.23 0-.48-.27-.36-.47a.39.39 0 00.63-.2.51.51 0 00-.43-.58c-.26-.05-.52.07-.78 0s-.48-.4-.25-.54c.06 0 .13 0 .19-.09s0-.32-.18-.36-.33 0-.49-.05a.57.57 0 01-.23-.8 1.41 1.41 0 01.76-.54c-.32 0-.75-.05-.8-.37s.24-.46.5-.53a1.92 1.92 0 00.75-.22.48.48 0 11.21-.92c.25.11.39.44.66.46a.46.46 0 01.26-.47.45.45 0 01.52.12.93.93 0 00-.24.69.59.59 0 00.45.52c.25 0 .52-.2.47-.44a1.09 1.09 0 00-.26-.42c-.1-.13-.15-.33 0-.44l.93-.17a.44.44 0 000 .7.45.45 0 00.64-.3.79.79 0 00-.38-.64 1.38 1.38 0 01-.54-.56c-.08-.24.13-.59.38-.5s.21.22.29.35a.53.53 0 00.47.27c.19 0 .33-.28.2-.42s-.36-.12-.41-.28.4-.34.38-.58-.35-.19-.58-.23a.51.51 0 01-.38-.48.49.49 0 01.42-.46.49.49 0 00.51.33.51.51 0 00.44-.43.75.75 0 010-.3.48.48 0 01.34-.2c.42-.1 1-.08 1.15.31a.71.71 0 01-.17.74 2.14 2.14 0 01-.67.43 1 1 0 01.62.2.37.37 0 010 .57c-.12.08-.28.06-.39.15s-.08.43.1.53a1 1 0 00.63 0 1.08 1.08 0 00.91.92 1.24 1.24 0 01.71-.71.59.59 0 01.76.48c0 .33-.37.55-.71.59a4.77 4.77 0 00-1 .08 1 1 0 01-.86 1.21.92.92 0 001.1.63.39.39 0 01.32-.64c.42.11.4.8.78 1a1.11 1.11 0 01.2-.82c.19-.21.65-.15.66.14 0 .46-1 .51-.84 1a1.08 1.08 0 01.59 0c.19.08.33.32.22.49s-.32.15-.5.14l-.67-.06c-.26 0-.57 0-.69.21a.46.46 0 00.26.61 1.33 1.33 0 00.74.05.74.74 0 00-.39.39.34.34 0 00.2.45c.19.05.35-.12.5-.25s.39-.24.52-.09c0 .43-.15.48-.34.83a.4.4 0 00.21.54.32.32 0 00.17 0c.13 0 .18-.2.23-.33a1 1 0 01.69-.71c.34-.07.75.23.67.57a.64.64 0 01-.19.29 1.19 1.19 0 01-1 .3 1.15 1.15 0 00-.31 0c-.11 0-.22.09-.22.19s.11.19.18.27a.49.49 0 010 .66.24.24 0 01-.16.07c-.25 0-.23-.45-.46-.53s-.47.4-.76.34-.27-.33-.46-.4a.36.36 0 00-.25 0 1.38 1.38 0 00-.71.25.62.62 0 00-.25.67.4.4 0 00.62.18 1.61 1.61 0 00.17-.28c.07-.1.19-.17.29-.11s.09.21.17.29.38-.06.56-.17a.54.54 0 01.65.06.45.45 0 010 .63 2.34 2.34 0 01.74-.12.44.44 0 01.27.07c.21.17 0 .5-.17.7s-.36.54-.14.69.36 0 .47-.12.17-.32.29-.46a.36.36 0 01.47-.12c.16.13.1.39 0 .54s-.32.28-.39.46a4.4 4.4 0 00.69-.4.6.6 0 01.74.08c.18.23 0 .58-.24.72a1.53 1.53 0 01-.85.07 1.06 1.06 0 01.5.16.38.38 0 01.14.47c-.13.2-.43.16-.66.08a3 3 0 00-.85-.25.69.69 0 00-.47.13.34.34 0 00-.08.45c.14.19.44.11.66 0a1 1 0 01.6-.11.37.37 0 01.29.46c-.09.19-.39.26-.4.47s.25.29.42.21a1 1 0 00.36-.41.63.63 0 01.4-.35.37.37 0 01.38.5c-.07.16-.25.24-.39.35s-.21.35-.07.46c.24-.07.43-.26.66-.35s.58 0 .61.25-.27.41-.52.44-.55 0-.72.21c0 .22.37.29.36.51s-.19.23-.35.24a1.56 1.56 0 01-.79-.18.64.64 0 00-.32-.13c-.29 0-.39.39-.38.68a.5.5 0 00.05.21c.1.17.36.15.53.05a5.45 5.45 0 01.47-.37c.17-.08.45 0 .49.15.07.35-.61.46-.58.81s.32.29.49.17a.7.7 0 00.23-.56.37.37 0 01.07-.27.33.33 0 01.29 0c.14 0 .29.11.32.25s-.26.35-.39.54a.4.4 0 00.07.51.41.41 0 00.51 0c.18-.16.17-.43.25-.66s.38-.43.54-.25l-.15 1a1.1 1.1 0 01.61-.5c.27-.05.58.21.47.46s-.17.18-.24.29a.33.33 0 00.09.42.35.35 0 00.44-.05c.21-.26 0-.67.08-1 .22-.48.76-.16.72.27A1 1 0 0172 31c-.2 0-.5.12-.43.31a2.85 2.85 0 011.05 0 2.59 2.59 0 00-.21.61c-.07.2-.31.39-.49.28s-.17-.33-.34-.39-.37.35-.61.51-.57 0-.83-.2-.68-.24-.79 0 0 .33 0 .49-.49.24-.79.19-.71 0-.69.33.49.47.35.72-.36.09-.55 0a.76.76 0 00-.59-.06.36.36 0 00-.22.49c.14.23.58.24.58.52s-.41.3-.49.54a.35.35 0 00.24.39.94.94 0 00.5 0c.22 0 .49-.1.57-.32s0-.28 0-.41a.42.42 0 01.59-.27.39.39 0 010 .63.66.66 0 111 .88c.22.14.5 0 .75-.08s.63 0 .62.27-.87.31-.89.72c0 .2.25.33.44.28a1.12 1.12 0 00.5-.34.79.79 0 01.55-.24.42.42 0 01.12.76 3.38 3.38 0 00-.34.11c-.11.05-.19.2-.11.29a.29.29 0 00.18.05c.28 0 .62-.11.78.12a.39.39 0 01-.08.47A1.26 1.26 0 0172 39a1.17 1.17 0 00.67.13 1 1 0 01.66.16c.18.15.19.5 0 .57s-.44-.23-.68-.36a.5.5 0 00-.57.07 6.47 6.47 0 00.82.44.73.73 0 00-.86.22.47.47 0 00.3.72c.29 0 .52-.3.81-.31a.44.44 0 01.43.33.49.49 0 01-.21.52c-.13.08-.31.13-.35.28s.17.32.35.29a1.64 1.64 0 00.49-.22.42.42 0 01.49 0c.19.21 0 .53-.3.66s-.55.33-.5.61.41.34.67.26a5.28 5.28 0 01.73-.33c.27-.06.61.12.57.39s-.64.33-.77.65c.48.16 1-.48 1.45-.27a.47.47 0 01.1.75 1.11 1.11 0 01-.75.11c-.26 0-.58 0-.66.3a.54.54 0 01.83.33.55.55 0 01-.69.57 1 1 0 01-.51-.61c-.18.06-.25.27-.36.42s-.37.25-.47.09.19-.49 0-.66a1.93 1.93 0 00-1 .21.49.49 0 00-.46-.71 1.05 1.05 0 01-.22.45.37.37 0 01-.45.09.46.46 0 01-.15-.45 1.06 1.06 0 000-.5c0-.16-.27-.27-.39-.16-.19.37.53.77.33 1.14a.35.35 0 01-.47.09.62.62 0 01-.25-.47c-.16.24-.45.5-.69.34s-.14-.41-.16-.63-.26-.5-.42-.34c0 .35-.11.81-.45.81s-.47-.49-.45-.85a.87.87 0 01-.21.57.37.37 0 01-.54 0c-.09-.15 0-.34-.08-.51A.39.39 0 0067 44a.25.25 0 00-.14.16c-.08.31.53.37.58.69s-.24.36-.45.3a1 1 0 01-.45-.45 1 1 0 01-.26.39.31.31 0 01-.42 0c-.08-.13 0-.35-.2-.37s-.18.12-.28.19a.36.36 0 01-.49-.11 1.11 1.11 0 01-.17-.54c-.09-.06-.22 0-.26.13a2.45 2.45 0 01-.09.32.39.39 0 01-.61 0 .84.84 0 01-.15-.66c-.13-.08-.27.1-.25.24s.12.27.14.41c.06.39-.45.6-.85.65.15.19.39.28.55.45s.2.51 0 .6-.31 0-.46-.12-.36-.11-.44 0a.67.67 0 00.64.44c.08.37-.33.41-.54.57s-.24.35-.27.63a21.56 21.56 0 00-.07 2.41c0 1.65.14 3.3.13 5h-2.1a71.16 71.16 0 00.28-7.33.24.24 0 00-.07-.16.24.24 0 00-.15 0h-.62c.16-.19.31-.38.46-.58-.17-.19-.55.09-.71-.1s.38-.58.22-.85c-.27-.09-.63.26-.81 0a.34.34 0 01.06-.42c.09-.12.22-.23.24-.38h-.62c.08-.22.15-.44.23-.67l-1.14.16c-.12-.24.31-.54.13-.73a.29.29 0 00-.16-.07.74.74 0 00-.36 0 .26.26 0 00-.22.25c0 .12.13.22.13.34s-.11.22-.23.24a.72.72 0 01-.36-.06 1.55 1.55 0 000 .43.35.35 0 01-.18.37c-.17.06-.32-.09-.48-.18s-.42-.05-.4.13a.43.43 0 00.13.17.43.43 0 01.11.39.28.28 0 01-.32.19c-.25-.09-.2-.52-.44-.63-.1.13 0 .3 0 .46s-.1.37-.24.31-.22-.23-.31-.14a.5.5 0 010 .43.33.33 0 01-.39.15.24.24 0 01-.1-.37c-.11-.1-.3 0-.41.11s-.25.24-.4.17-.11-.34 0-.45a4.46 4.46 0 01.5-.22c.15-.09.27-.31.16-.44h-.4v-.19c.14 0 .3-.14.3-.29s-.13-.25-.27-.29a2 2 0 01-.42-.11c-.13-.07-.21-.25-.12-.36s.28 0 .41.1.34 0 .33-.13-.37-.14-.42-.32.1-.21.22-.21a2.33 2.33 0 01.35.06.46.46 0 00.46-.35.48.48 0 00-.26-.52 1 1 0 00-.82.22l.13-.73a.92.92 0 00-.81.74v-.63c0-.21-.27 0-.31.17s.07.69-.34.65c-.24 0-.44-.36-.66-.45s-.41 0-.62.22-.41.51-.53.2v-.22c0-.07-.37-.08-.42.11a3.77 3.77 0 000 .58c0 .2-.19.42-.36.32A.31.31 0 0149 44a.73.73 0 00.09-.4c-.06-.27-.42-.29-.7-.25.13-.25.25-.57.07-.78s-.44-.14-.68-.1-.53 0-.63-.2.07-.44.28-.52a1.11 1.11 0 01.65 0 .85.85 0 01-.33-.26c-.07-.13-.06-.32.07-.38a.34.34 0 01.26 0 7.43 7.43 0 01.69.35.7.7 0 00.74-.05c-.17-.25-.7-.07-.79-.36s.17-.35.36-.31a.84.84 0 01.44.35.26.26 0 01-.16-.41.3.3 0 01.46 0c.09.14.07.32.15.47s.54.18.71 0a1.11 1.11 0 00.14-.8c0-.19-.1-.41-.28-.44a.65.65 0 00-.34.13c-.11 0-.27.07-.33 0s.4-.5.2-.67a1.87 1.87 0 00-.53 0c-.18 0-.39-.11-.39-.29s.34-.33.58-.26.53.19.72 0a.15.15 0 00.07-.12c0-.26-.55 0-.63-.3a1.36 1.36 0 01.51-.18c-.08-.29-.61-.22-.68-.5a.34.34 0 01.23-.34.63.63 0 01.62.09c.2.15.28.41.47.58s.57.14.59-.11-.29-.32-.51-.32-.52 0-.58-.25a.92.92 0 00.66-.37c-.26-.06-.6-.24-.52-.5s.41-.23.64-.15.51.21.7 0c.08-.42-.84-.42-.82-.84a.36.36 0 01.04-.03zM62 14.87c0-.06-.09-.12-.11 0s.11.13.11 0zm.22.23c0-.13.2-.25 0-.34-.03.13-.22.24-.02.34zm-.33.55v.23c.27.17.33-.38.11-.34 0 .07 0 .13-.13.11zm-3.45.11V16h.34v-.34h-.23c-.02.06-.03.12-.13.1zm3 0c-.13 0-.18-.16-.23 0s.19.14.22 0zm1.22.23h.22v-.23h-.22zm-3.66.33c-.09 0-.22 0-.22.11s.22 0 .22-.11zm1.67.11c.37.34.33-.41 0 0zm-1.45.45a.3.3 0 00-.22-.34c0 .18 0 .39.2.34zm.78-.12h.22v-.22H60zm-1.78.56c0-.15.2-.1.22-.22-.16 0-.47-.48-.55-.22.28-.05.11.41.31.44zm2 .45c.31.17.31-.48.11-.45-.05.15-.17.21-.13.45zm3.34.22c.3.07.21-.23.33-.34-.26-.02-.37.1-.35.35zm-1.23.67c.14 0 .07-.17 0 0zm.67.44c.19.2.44 0 .45-.33-.31-.03-.45.04-.45.33zm-.33.22c0-.06-.09-.12-.11 0s.07.13.09 0zm3.11 1a.11.11 0 00-.22 0c.1-.01.15.17.2 0zm-6 .78c.58-.17.44.38.66.56.57-.56-.25-1.17-.77-1.34-.11.39.14.43.09.78zm-2-.44c0-.12-.09-.29-.12-.11s.07.28.1.11zm5.56 1c0-.26-.12-.48-.34-.56 0 .3-.12.7.32.56zm-2.45-.34c0-.06-.09-.12-.11 0s.07.13.09 0zm-.11.45V22H61c.12-.16.12-.27-.11-.33-.03.06-.04.12-.13.1zm1.33 0c-.27.37.38-.27 0 0zm-1.44.44c-.09 0-.22 0-.23.11s.2 0 .21-.11zm2.89.11c0-.06-.09-.12-.11 0s.07.13.09 0zm.11.23c.14 0 .15.14.33.11a.31.31 0 00-.22-.34c-.02.12-.11.14-.13.23zm-5.56.55c.34-.18.43-.09.67-.22-.22 0-.14-.3-.45-.22-.02.22-.33.14-.24.44zm2.22.11a.3.3 0 00-.22-.33c-.01.18-.03.39.2.33zm5.34.12c0-.3-.23-.29-.44-.34-.12.36.34.16.42.34zm-9.67.11c-.09 0-.22 0-.23.11s.23 0 .23-.11zm-.56.11c-.09 0-.22 0-.22.11s.2 0 .2-.11zm3.45.11c.34.3-.31-.34 0 0zm6.45 0c-.11 0-.14-.09-.23-.11-.32.18.15.37.21.11zm-7.68.56c0-.07-.09-.13-.11 0s.07.12.09 0zm6.9-.12c-.09 0-.22 0-.22.12s.2-.01.2-.12zM60 25c.22-.35.3-.81-.33-.77-.08.41.02.68.33.77zm7.45-.77h-.35c-.09 0-.22 0-.23.11.13-.07.58.12.56-.12zm-5.56.22a.11.11 0 00-.22 0c.1-.02.15.15.2-.01zm-4.67.33c0-.06-.09-.12-.11 0s.07.12.09-.01zm5.89.45c.43.09.43-.24.56-.45-.21 0-.25-.12-.45-.11a.77.77 0 00-.13.55zm2.23-.45c-.13 0-.32 0-.34.11s.3.01.32-.12zm-4.47.22c0-.06-.09-.12-.11 0s.09.12.11 0zm1.33.67c0-.24.4-.05.56-.11v-.46c-.44-.25-.87.18-.56.56zm6.45 1.56c.21.34.63-.23.34-.34.01.2-.37.11-.34.33zm-12.9 0c0-.12-.08-.29-.11-.11s.09.27.11.1zm12.57.44c-.21 0-.08-.37-.33-.33-.12.27.23.66.33.32zm-8.32.55c0-.09-.3-.14-.33 0s.41.24.33 0zm-4.56 1.44c.44-.17.68.43.89.12-.22-.34-.71-.4-.89-.78.21-.16.3-.6-.11-.67.05.4-.03.78.09 1.33zm-1.11-.89h.22v-.22h-.22zm2 .34c-.16 0-.19-.18-.33-.22-.12.22.26.5.31.22zm-1.67.22c-.09-.16-.36-.16-.55-.22-.17.35.96.29.53.22zm4.89 1c.3 0 .39.28.67.34 0-.14.13-.07.22 0 0-.18 0-.39.23-.34-.13-.47-.59-.6-.67-1.11-.15.39-.46.6-.47 1.11zm5.9-.44c0-.36.72-.09.55-.67-.34.01-.9.36-.57.67zm-7.67-.45c0-.06-.09-.12-.12 0s.07.13.1 0zm1 .11c0-.11-.09-.28-.11-.11s.06.29.09.11zm-4 .56c0-.21.13-.25.11-.45-.4-.08-.46.43-.14.45zm3.45.22c.5.06.37-.58 0-.55-.23.22-.04.27-.03.55zm1.22-.11c-.08 0-.22 0-.22.11s.19 0 .19-.11zm7.57.45c0-.07-.09-.13-.12 0s.1.12.1 0zm-13.79.77c.29 0 .65.07.66-.22-.18-.15-.7-.11-.69.22zm11-.22a.12.12 0 00-.23 0c0 .14.11.07.21 0zm6 .22c0-.06-.09-.12-.11 0s.07.13.09 0zm-16 .34c0-.16.18-.19.22-.34-.26-.09-.53.29-.25.34zm11.56.33c0-.26.39-.21.34-.56-.31-.04-.52.54-.37.56zm2.12-.33c.06 0 .13 0 .11.11h.22c0-.13 0-.32-.11-.34-.03.15-.23.11-.25.23zm-12.68.11c-.31.34.34-.31 0 0zm12.34-.11c-.08 0-.22 0-.22.11s.19 0 .19-.11zm-1.33.55c.36 0 1.22-.1.89-.44-.23.25-.85.11-.92.44zm.89.45c.32 0 .56 0 .66-.22-.26.06-.79-.18-.69.22zm-.45.44v.45c.36.06.52-.08.78-.11-.01-.4-.61-.51-.81-.34zm-9.34.11c-.09 0-.22 0-.22.12s.19-.01.19-.12zm1.78.56c0-.28-.17-.35-.33-.44.01.21.01.47.3.44zm.89-.33c-.27.37.37-.27 0 0zm4.78.89c.36 0 .64-.48.22-.56.07.35-.2.34-.25.56zm1-.23c-.14 0-.15-.14-.33-.11-.2.28.35.33.3.11zm-11.9.45c.34.3-.3-.34 0 0zm8.12.55c-.12 0-.17-.16-.22 0s.21.14.21 0zm1.78.23c.25 0 .42 0 .45-.23-.24-.03-.45.03-.48.23zm-4.11.44c.17-.31-.48-.31-.45-.11.18-.02.22.13.42.11zm8.89.67c.36.1.16-.36.34-.45-.33-.03-.4.16-.37.45zm-8.23.55c-.27 0-.08.51.23.34-.18-.36-.06-.6 0-1-.16 0-.19-.19-.34-.22-.4.27-.13.61.08.88zm1.78-.33V37h.22c.13-.16.12-.27-.11-.33-.03.07-.04.13-.14.11zM51.75 37c-.64-.32-.29.28 0 0zm1.67.56c-.15 0-.1-.2-.22-.22-.13.23.17.53.22.22zm12.45.22c.33.17.33-.5 0-.33zm1.45.11a.49.49 0 01.11-.33c-.14 0-.15-.14-.33-.11a.46.46 0 00.22.44zm1.78-.33s-.69-.16-.34 0c-.05-.03.46.21.34 0zm-10 .11c-.45-.39-.26.36 0 0zm9.45-.11c-.13 0-.31 0-.33.11.12-.02.3.02.32-.11zm-16.79.11c-.09 0-.22 0-.22.11s.21 0 .21-.11zm12.24.45h.45c0-.17 0-.41-.11-.45-.06.23-.34.22-.34.45zm5.45.11c.6.13.12-.74 0-.45.27.03-.17.22-.02.45zM50.86 38c-.13 0-.31 0-.33.12s.31.01.33-.12zm17.79.34a.62.62 0 00.11.33c.3 0 .37-.15.34-.44a.61.61 0 00-.45.11zm-.55.22c.11 0 .13.09.22.11 0-.17 0-.38-.22-.33zm2.67.22h.33c0-.25 0-.42-.22-.44-.04.15-.16.21-.11.44zm1.33 0c-.26 0-.47-.7-.78-.33.26.05.56.61.78.33zm-6-.22v.22h.22c0-.06 0-.13.11-.11v-.22h-.22c-.01.07-.02.13-.11.11zm3.78.22c0-.11-.2-.14-.23 0s.13.07.23 0zm-17.46.34c0-.07 0-.14.11-.11 0-.14 0-.27-.22-.23.01.13-.02.32.11.34zm3.33.11c-.08-.18-.35-.17-.33-.45h-.33V39c.11 0 .13.09.22.11.07-.37.37.5.44.12zm13.79.11c.16.23.53-.26.45.33.46-.28.42.13.78.22.22-.21.48-.8.11-1-.28.46-1.16-.01-1.34.45zM51.42 40c-.08-.34.19-.33.11-.67-.2-.1-.33-.27-.56-.33a.65.65 0 00.45 1zm13.67-.89c0-.12-.19-.14-.22 0 .13 0 .18.17.22.01zm-7.45.11c0 .37-.48-.3-.55.11.1.33.91.24.55-.1zm-4.22.55c-.05.49.14.76.55.78.3-.34.36-.33.78-.11.1-.73-.67-.59-.89-1a1.81 1.81 0 01-.44.34zm-1.89.45c.44.17.72-.38.44-.56.03.34-.36.34-.44.57zm19.57-.34c0 .44.41.41.67.56 0-.31-.38-.22-.23-.67a.7.7 0 00-.44.12zm-13.68.23c.17 0 .41 0 .45-.11-.15-.14-.42-.14-.45.12zm10.23.22c.22-.05.48 0 .45-.33-.36-.09-.35.18-.45.34zm2.67-.22c-.08 0-.22 0-.22.11s.22.01.22-.1zm-17.12.66c-.3 0-.39-.27-.67-.33-.06.34.47.56.67.34zm17.12-.22c-.57.27.38.29 0 0zm-15.12.35c.31.14.38-.44.22-.12-.16 0-.42.03-.22.12zm1.22-.23c-.08 0-.22 0-.22.11s.22 0 .22-.11zm-5.11.33c-.13 0-.32 0-.34.11.13-.01.32.03.34-.11zm.55.33c.17 0 .41 0 .45-.11-.26.09-.48-.39-.56-.11.09.03.13.1.11.23zm18.14-.1c-.18-.06-.6-.43-.78-.11.27-.05.62.39.78.11zm-14.68.33c.27-.13-.12-.52-.22-.22.13 0 .09.2.21.22zm-2 .11c.28 0 .35-.17.44-.33-.3-.03-.49.04-.45.33zm-.78.23a.42.42 0 00.44-.45h-.33c.02.21-.13.25-.12.45zm-4-.11c.08 0 .13.09.11.22a4.58 4.58 0 001.11 0c0-.45-1.09-.63-1.23-.22zm13.67.55c0-.19.34-.69.11-.78-.13.11-.42.61-.12.78zm-11 .56c.28 0 .35-.18.56-.23 0-.4 0-.76.45-.66 0-.3-.16-.37-.45-.34.02.63-.77.47-.58 1.23zm20.13-1.11c0-.12-.19-.14-.22 0 .1-.02.15.21.2 0zM50 42.23c0 .27.2.24.11.56.28 0 .35-.18.56-.23-.08-.34-.08-.21 0-.55-.38-.01-.47.16-.67.22zm6-.11c0-.06-.09-.13-.11 0s.11.12.11 0zm-.89.44c-.32 0-.2-.47-.56-.44-.29.19.32.77.54.44zm18.12-.22a.11.11 0 00-.22 0c-.01.14.1.07.2 0zm-9.89.22a.3.3 0 00.33-.22c-.2.01-.41-.01-.35.22zm-13.79.23c0-.16.18-.19.22-.34-.25-.1-.52.29-.24.34zm13 .11c.21 0 .48 0 .44-.34s-.44.04-.45.34zm-2.45 0a.31.31 0 00-.22-.34.31.31 0 00.21.34zm11.12-.11c.23 0 .3.22.45.33.26-.19-.39-.81-.46-.33zm-12.34 0c-.34.37.41.33 0 0zm1.67.33c0-.13.19-.25 0-.33-.03.13-.21.21-.01.33zm-3.12.11c0 .31.2.47.56.45v-.23c0-.06 0-.13-.11-.11s0 .13-.11.11 0-.31-.12-.33-.1.13-.23.11zm1.34 0c-.09 0-.22 0-.23.11s.21 0 .22-.11zm-2.34.56c.12.16.51-.41.11-.34v.11a2.51 2.51 0 01-.12.23zm15.68 0c-.2 0-.56-.12-.44.22a.64.64 0 00.77.11 1.13 1.13 0 00-.33-.67zm-16.23.11a.12.12 0 00-.23 0c.02.1.12.1.22 0zm3.55 0a.11.11 0 00-.22 0c.01.1.11.1.21 0zm-.11.89c.27 0 .24-.21.56-.11-.07-.29 0-.4.33-.34 0-.26-.11-.48-.33-.55 0 .19-.14 0-.34 0-.02.44-.16.44-.23 1zm3.78-.45c.35 0 .5-.09.45-.44-.3.13-.66-.22-.67 0 .19.02.24.19.21.44zm1.23-.22c.53 0 1 0 1 .45.31 0 .76.09.78-.23-.09 0-.13-.09-.12-.22-.17-.32-.6.52-.55-.22-.44.19-.84-.18-1.12.22zm-9.24.88c-.38-.08-.44.42-.11.44-.09-.41.29-.37.44-.55 0 .13 0 .31.11.33s0-.13.11-.11.09-.13.11-.22c-.62 0-.06-.7-.33-.89-.03.42-.49.41-.33 1zm6.91-.66c.33.17.33-.49 0-.33zm5.78 0c.26 0 .42 0 .45-.22a.27.27 0 00-.47.22zm5.12 0c.05.51.46.28.89.23.06-.3-.46-.57-.56-.34.28.1-.23.35-.35.11zm-14.46.11c0-.06-.09-.12-.11 0s.07.13.09 0zm15.79.45c0-.28-.17-.35-.33-.45-.04.28.15.35.31.45zm-20 .78c.3.07.21-.23.33-.34h-.36zm-.45.33c.19 0 .06.31.22.33.13-.13.32-.2.23-.55-.29-.03-.45.03-.48.21zm6.12.11c.34-.08.33.19.67.11.1-.63-.67-.48-.7-.11zm2.89.34c.18-.31-.48-.31-.45-.12.13.04.19.16.42.12zM495.89 47.87a.34.34 0 01.3-.15.62.62 0 01.41.2c.16.15.4.35.55.2a1.27 1.27 0 01-.25-.42 2 2 0 001 .07c-.11-.1 0-.29.05-.4s.21-.26.17-.4-.27-.2-.44-.18a.74.74 0 01-.49 0 .37.37 0 01-.09-.45.63.63 0 01.4-.27.87.87 0 01.81.25c.18.19.27.44.45.63s.52.27.67 0a.38.38 0 00-.1-.48 1 1 0 00-.49-.2.8.8 0 01-.34-.11.26.26 0 01-.11-.31.13.13 0 01.06-.07c.2-.18.54 0 .72.16a5.23 5.23 0 00.5.64.83.83 0 00.79.11c.24-.11.43-.43.27-.64s-.51-.17-.59-.41a.5.5 0 00.3-.72.5.5 0 00-.79 0c-.08.11-.17.29-.3.25s0-.36 0-.54a.63.63 0 00-.45.21.79.79 0 01-.43.25c-.17 0-.35-.18-.26-.33-.17-.07-.34.09-.48.22s-.4.2-.48 0a1 1 0 000-.54c-.18 0-.27.21-.36.37s-.52.43-.73.22a.43.43 0 01.13-.65 1.24 1.24 0 01.74-.14.75.75 0 01-.32-.23.26.26 0 010-.35.48.48 0 01.17 0l.69-.08c-.05-.23-.26-.39-.36-.6s0-.56.22-.53.27.71.6.72a.85.85 0 01.15-.68c.11-.22.19-.5 0-.68a1.75 1.75 0 00-.35-.2c-.12-.08-.2-.25-.1-.34s.24 0 .36-.09.12-.36 0-.53c-.23 0-.56 0-.56-.21s.17-.24.32-.25 1.4.83 1.23.14a.49.49 0 00-.45-.32 3.81 3.81 0 01-.59-.05c-.19 0-.37-.22-.33-.41h1.54a.31.31 0 00.28-.08c.14-.17-.12-.37-.33-.44s-.46-.3-.3-.45l1.77.3c.23 0 .57 0 .55-.25s-.5-.32-.44-.57a.26.26 0 01.13-.16c.22-.15.48-.21.68-.37s.32-.5.14-.68a.5.5 0 00-.6 0c-.18.12-.31.31-.48.43a1 1 0 01-1 .08 1 1 0 01-.55-.82c-.34.22-.25.78-.55 1a.9.9 0 01-1 0 .55.55 0 01-.29-.29c-.06-.24.2-.44.44-.5s.52-.09.67-.29a.78.78 0 01-.12-.9 2.16 2.16 0 01.63-.72l.55.81c.28-.21.32-.68.65-.83a.68.68 0 01.75.32c.16.25.24.55.41.79a1.31 1.31 0 001.45.51.53.53 0 01-.34-.55c0-.23.08-.46.07-.7a.67.67 0 00-.05-.19c-.23-.39-1.06.07-1.2-.36-.06-.19.11-.36.23-.52s.18-.43 0-.51-.31.07-.44.17a1 1 0 01-1.1 0 2.83 2.83 0 00.48-.5l-1.14-.09c-.08-.29.26-.51.55-.55s.64 0 .81-.28a.61.61 0 01-.57-.74c.13-.35.73-.38.83 0 .06.19 0 .41.05.59s.35.27.57.3.28 0 .36-.07-.05-.44 0-.64.47-.19.63 0 .2.46.35.67a.7.7 0 00.89.25.52.52 0 00.06-.84c-.2-.13-.46-.07-.69-.11s-.48-.27-.36-.47a.39.39 0 00.63-.2.53.53 0 00-.43-.59c-.26 0-.52.08-.78 0s-.48-.41-.25-.54c.06 0 .13 0 .19-.09s0-.32-.18-.36-.33 0-.49-.05a.56.56 0 01-.23-.8 1.36 1.36 0 01.76-.54c-.32 0-.75-.05-.8-.37s.24-.46.5-.53a2 2 0 00.75-.22.48.48 0 11.21-.92c.25.11.39.43.66.46a.45.45 0 01.26-.47.46.46 0 01.52.11 1 1 0 00-.24.69.59.59 0 00.45.53.42.42 0 00.47-.45 1.14 1.14 0 00-.26-.41c-.1-.13-.15-.34 0-.44l.93-.17a.42.42 0 10.64.4.73.73 0 00-.38-.64 1.42 1.42 0 01-.53-.56c-.08-.24.13-.59.38-.5s.21.22.29.35a.54.54 0 00.47.27c.19 0 .33-.28.2-.42s-.36-.12-.41-.28.4-.34.38-.59-.35-.18-.58-.22a.51.51 0 01-.38-.48.49.49 0 01.41-.46.52.52 0 00.52.33.51.51 0 00.44-.43.83.83 0 010-.31.47.47 0 01.34-.19c.42-.1 1-.08 1.15.31a.71.71 0 01-.17.74 2.33 2.33 0 01-.67.43 1 1 0 01.62.2.37.37 0 010 .57c-.12.08-.28.06-.39.15s-.09.43.1.53a1 1 0 00.63.05 1.08 1.08 0 00.91.92 1.24 1.24 0 01.71-.71.59.59 0 01.76.48c0 .33-.37.55-.71.59a4.77 4.77 0 00-1 .08 1 1 0 01-.86 1.21.92.92 0 001.1.63.39.39 0 01.32-.64c.42.11.4.8.78 1a1.09 1.09 0 01.2-.81c.19-.21.65-.15.66.14 0 .46-.95.51-.84 1a1 1 0 01.59 0c.19.08.33.32.22.49s-.32.15-.5.14l-.68-.06c-.25 0-.56 0-.68.21a.46.46 0 00.26.61 1.32 1.32 0 00.74 0 .8.8 0 00-.39.4.34.34 0 00.2.45c.19.05.35-.12.5-.25s.39-.24.52-.09c0 .43-.15.48-.34.83a.4.4 0 00.21.54.25.25 0 00.17 0c.13 0 .18-.19.23-.32a1 1 0 01.69-.71c.34-.07.75.23.67.57a.64.64 0 01-.19.29 1.19 1.19 0 01-1 .3 1.15 1.15 0 00-.31 0c-.11 0-.22.09-.22.19s.11.19.18.27a.49.49 0 010 .66.24.24 0 01-.16.07c-.25 0-.23-.45-.46-.54s-.47.4-.76.35-.27-.33-.46-.41a.53.53 0 00-.25 0 1.49 1.49 0 00-.71.26.62.62 0 00-.25.67.4.4 0 00.62.18 1.61 1.61 0 00.17-.28c.07-.1.19-.17.29-.11s.09.21.17.29.38-.06.56-.17a.53.53 0 01.65.06.45.45 0 010 .63 2.34 2.34 0 01.74-.12.44.44 0 01.27.07c.21.17 0 .5-.17.7s-.36.54-.14.69.36 0 .47-.13.17-.31.29-.45a.36.36 0 01.47-.12c.16.12.1.39 0 .54s-.31.27-.39.46a4.86 4.86 0 00.7-.4.6.6 0 01.74.08.51.51 0 01-.24.71 1.44 1.44 0 01-.85.08 1 1 0 01.5.16.37.37 0 01.14.47c-.13.2-.43.16-.66.07a3.24 3.24 0 00-.86-.24.63.63 0 00-.46.13.33.33 0 00-.08.44c.14.19.44.12.66 0a1 1 0 01.6-.11.37.37 0 01.29.46c-.09.19-.39.26-.4.47s.25.28.42.21a1 1 0 00.36-.41.63.63 0 01.4-.35.37.37 0 01.38.5c-.08.16-.25.23-.39.35s-.21.35-.08.46c.25-.08.44-.26.67-.35s.58 0 .61.25-.27.41-.52.44-.55 0-.72.21c0 .21.37.29.36.51s-.2.23-.35.24a1.53 1.53 0 01-.79-.18.68.68 0 00-.32-.13c-.29 0-.39.38-.38.67a.4.4 0 000 .22c.1.17.36.15.53.05a4.25 4.25 0 01.47-.37c.17-.08.44 0 .49.15.07.35-.61.46-.58.81s.32.29.49.17a.7.7 0 00.23-.56.35.35 0 01.07-.27.33.33 0 01.29 0c.13 0 .29.11.32.25s-.26.35-.39.54a.4.4 0 00.07.51.41.41 0 00.51 0c.18-.16.17-.44.25-.66s.38-.43.54-.25l-.15 1a1.1 1.1 0 01.61-.5c.27-.05.58.21.47.45s-.18.19-.24.29a.34.34 0 00.09.43.35.35 0 00.44 0c.21-.26 0-.67.08-1 .21-.48.76-.16.72.27a1 1 0 01-.68.87c-.2 0-.5.11-.43.31a2.86 2.86 0 011 0 2.44 2.44 0 00-.21.61c-.07.2-.31.39-.49.28s-.17-.33-.34-.39-.38.35-.61.51-.58 0-.83-.2-.68-.24-.79 0 0 .33 0 .48-.49.25-.79.2-.71 0-.69.33.49.47.35.72-.36.09-.55 0a.77.77 0 00-.59-.06.36.36 0 00-.22.49c.14.23.58.24.58.51s-.41.31-.49.55a.35.35 0 00.24.39.91.91 0 00.49 0c.23 0 .5-.11.58-.32s0-.28 0-.41a.43.43 0 01.59-.28.4.4 0 01.05.63.66.66 0 111 .89c.22.14.5 0 .75-.08s.63 0 .62.27c0 .41-.87.31-.89.72 0 .2.25.33.44.28a1.21 1.21 0 00.5-.34.79.79 0 01.55-.24.42.42 0 01.12.76 3.38 3.38 0 00-.34.11c-.11.05-.19.2-.11.29a.29.29 0 00.18.05c.28 0 .62-.11.78.12a.39.39 0 01-.08.47 1.11 1.11 0 01-.45.25 1.09 1.09 0 00.67.14.94.94 0 01.66.16c.18.15.18.5 0 .57s-.44-.24-.68-.36a.5.5 0 00-.57.07 6.4 6.4 0 00.82.43.75.75 0 00-.86.23.47.47 0 00.3.72c.29 0 .52-.3.81-.31a.44.44 0 01.43.33.47.47 0 01-.21.51c-.13.09-.31.14-.35.29s.17.31.35.29a1.64 1.64 0 00.49-.22.42.42 0 01.49 0c.19.21 0 .52-.3.66s-.55.33-.5.61.41.34.67.25a6.73 6.73 0 01.73-.32c.27-.06.61.12.57.38s-.64.34-.77.65c.48.17 1-.47 1.45-.26a.47.47 0 01.1.75 1.09 1.09 0 01-.76.1c-.26 0-.57.06-.65.3a.55.55 0 01.83.33.54.54 0 01-.69.57 1 1 0 01-.51-.6c-.18.06-.25.27-.36.42s-.37.25-.47.09.19-.49 0-.66a1.93 1.93 0 00-1 .21.49.49 0 00-.46-.71 1.05 1.05 0 01-.22.45.37.37 0 01-.45.09.47.47 0 01-.15-.46 1 1 0 000-.49c0-.16-.27-.27-.39-.16-.2.37.53.77.33 1.13a.33.33 0 01-.47.09.58.58 0 01-.25-.46c-.16.24-.45.5-.69.34s-.14-.41-.16-.64-.26-.49-.42-.33c0 .34-.11.8-.45.81s-.47-.49-.45-.85a.87.87 0 01-.21.57.37.37 0 01-.54 0c-.09-.15 0-.35-.08-.51a.39.39 0 00-.53-.22.25.25 0 00-.14.16c-.08.31.53.37.58.69s-.24.36-.45.29a.88.88 0 01-.45-.44 1 1 0 01-.26.39.31.31 0 01-.42 0c-.08-.13-.05-.35-.2-.38s-.18.13-.28.2a.36.36 0 01-.49-.11 1.11 1.11 0 01-.17-.54c-.09-.06-.22 0-.26.13a2.45 2.45 0 01-.09.32.4.4 0 01-.61 0 .81.81 0 01-.15-.66c-.13-.08-.27.09-.25.24s.12.26.14.41c.06.39-.45.59-.85.65.15.19.39.28.55.45s.2.51 0 .6a.56.56 0 01-.46-.12c-.14-.08-.36-.11-.44 0a.68.68 0 00.64.44c.08.37-.33.41-.54.57s-.24.35-.27.63a21.56 21.56 0 00-.07 2.41c0 1.65.14 3.3.13 5h-2.11a71.16 71.16 0 00.28-7.21.24.24 0 00-.07-.16.24.24 0 00-.15 0h-.62c.16-.19.31-.38.46-.58-.17-.19-.55.09-.71-.1s.38-.58.22-.85c-.27-.09-.63.26-.81 0a.34.34 0 01.06-.42c.09-.12.22-.23.24-.38H503l.23-.67-1.14.17c-.12-.24.31-.54.13-.73a.29.29 0 00-.16-.07.89.89 0 00-.36 0 .27.27 0 00-.22.26c0 .12.13.22.13.34s-.11.22-.23.24a.63.63 0 01-.36-.07 1.63 1.63 0 000 .44c0 .14 0 .32-.18.36s-.32-.08-.48-.17-.42 0-.4.12.08.12.13.18a.42.42 0 01.11.38.27.27 0 01-.32.2c-.26-.09-.2-.52-.44-.63-.1.12 0 .3 0 .46s-.1.37-.24.31-.22-.23-.31-.15a.52.52 0 010 .44.33.33 0 01-.39.15.25.25 0 01-.1-.37c-.11-.1-.3 0-.41.11s-.25.24-.4.17-.11-.34 0-.45a5.27 5.27 0 01.49-.22c.16-.09.28-.31.17-.45h-.4V58c.14 0 .3-.14.3-.29s-.13-.25-.27-.29a2 2 0 01-.42-.11c-.13-.07-.21-.25-.12-.36s.28 0 .41.09.34 0 .33-.12-.38-.14-.42-.32.1-.21.22-.21a2.33 2.33 0 01.35.06.46.46 0 00.46-.35.47.47 0 00-.26-.52 1 1 0 00-.82.22c0-.24.09-.49.13-.73a.92.92 0 00-.81.74v-.64c0-.22-.27 0-.31.18s.07.69-.34.65c-.24 0-.44-.37-.66-.45s-.41 0-.62.22-.41.51-.53.2v-.22c0-.07-.37-.08-.42.11a3.77 3.77 0 000 .58c0 .19-.19.42-.36.32a.31.31 0 01-.06-.38.73.73 0 00.09-.4c-.06-.27-.43-.3-.7-.26.13-.24.25-.56.07-.77s-.44-.14-.68-.1-.53 0-.63-.2a.41.41 0 01.28-.52 1.11 1.11 0 01.65 0 .79.79 0 01-.33-.27.27.27 0 01.07-.37.34.34 0 01.26 0 7.43 7.43 0 01.69.35.7.7 0 00.74-.05c-.17-.25-.7-.07-.79-.36s.17-.35.36-.31a.84.84 0 01.44.35.26.26 0 01-.16-.41.29.29 0 01.46 0c.09.13.06.32.15.46s.54.19.71 0a1.12 1.12 0 00.14-.81c0-.18-.1-.4-.28-.43s-.23.07-.34.13-.27.07-.33 0 .4-.51.2-.67a1.87 1.87 0 00-.53 0c-.18 0-.39-.12-.39-.29s.34-.33.58-.26.53.19.72 0a.15.15 0 00.07-.12c0-.26-.55-.06-.63-.3a1.37 1.37 0 01.51-.19c-.08-.28-.61-.21-.68-.49a.34.34 0 01.23-.34.63.63 0 01.62.09c.2.15.28.41.47.58s.57.14.59-.11-.26-.31-.5-.31-.52 0-.58-.25a.89.89 0 00.67-.3c-.26-.06-.6-.23-.52-.49s.41-.23.64-.15.51.21.7 0c.08-.42-.84-.42-.82-.85a.49.49 0 01.04-.09zm10.74-20.6c0-.06-.09-.12-.11 0s.09.13.11 0zm.22.23c0-.14.2-.26 0-.34-.01.13-.19.25 0 .34zm-.33.55v.22c.27.18.33-.37.11-.33-.01.06-.02.13-.11.11zm-3.45.11v.23h.34v-.34h-.23c0 .07-.01.13-.11.11zm3 0c-.13 0-.18-.16-.23 0s.21.14.24 0zm1.22.23h.22v-.23h-.22zm-3.67.33c-.09 0-.22 0-.22.11s.23 0 .23-.11zm1.67.11c.37.34.33-.41 0 0zm-1.45.44a.3.3 0 00-.22-.33c.02.18-.01.39.23.33zm.78-.11h.22v-.22h-.22zm-1.78.56c0-.15.2-.1.22-.22-.16 0-.47-.48-.55-.23.31-.04.11.42.34.45zm2 .44c.31.18.31-.48.11-.44-.02.15-.15.21-.1.44zm3.34.23c.3.07.21-.23.33-.34-.23-.05-.34.09-.32.34zm-1.23.66c.14 0 .07-.16 0 0zm.67.45c.19.2.44 0 .45-.33-.28-.04-.47.04-.44.33zm-.33.22c0-.06-.09-.12-.11 0s.1.13.12 0zm3.11 1a.11.11 0 00-.22 0c.13-.01.18.16.23 0zm-6 .78c.58-.17.44.38.66.56.57-.56-.25-1.17-.77-1.34-.08.39.17.43.12.78zm-2-.44c0-.12-.09-.29-.12-.12s.1.29.13.12zm5.56 1c0-.26-.12-.48-.34-.56.01.29-.09.7.38.56zm-2.45-.34c0-.06-.09-.12-.11 0s.1.13.12 0zm-.11.45v.22h.22c.12-.16.12-.27-.11-.33 0 .06-.01.13-.1.11zm1.33 0c-.27.37.38-.27 0 0zm-1.44.44c-.09 0-.22 0-.23.11s.23 0 .24-.11zm2.89.11c0-.06-.09-.12-.11 0s.1.13.12 0zm.11.23c.14 0 .15.14.33.11a.31.31 0 00-.22-.34c.01.12-.08.14-.1.28zm-5.56.55c.34-.18.43-.09.67-.22-.22 0-.15-.3-.45-.22.05.22-.29.14-.21.44zm2.22.11a.3.3 0 00-.22-.33c.02.17 0 .39.27.33zm5.34.11c0-.29-.23-.28-.44-.33-.09.36.37.16.45.33zm-9.67.12c-.09 0-.22 0-.23.11s.23-.01.24-.11zm-.56.11c-.09 0-.22 0-.22.11s.23-.01.23-.06zm3.45.11c.34.3-.31-.34 0 0zm6.45 0c-.11 0-.14-.09-.23-.11-.29.18.18.37.27.11zm-7.68.55c0-.06-.09-.12-.11 0s.1.13.12 0zm6.9-.11c-.09 0-.22 0-.22.11s.23 0 .23-.11zm-4.56.89c.22-.35.3-.82-.33-.78-.05.39.05.7.34.78zm7.45-.78h-.33c-.09 0-.22 0-.23.12.18-.07.59.13.57-.12zm-5.56.23a.11.11 0 00-.22 0c.13-.01.18.16.23 0zm-4.67.33c0-.06-.09-.13-.11 0s.1.13.12 0zm5.89.45c.43.09.43-.24.56-.45-.21 0-.25-.13-.45-.11a.77.77 0 00-.1.56zm2.23-.45c-.13 0-.32 0-.34.11.14-.02.38.02.38-.11zm-4.45.22c0-.06-.09-.12-.11 0s.1.13.12 0zm1.33.67c0-.24.4-.05.56-.11v-.45c-.4-.25-.86.17-.55.56zm6.45 1.56c.21.34.63-.23.34-.34-.01.21-.36.08-.33.34zm-12.9 0c0-.12-.08-.29-.11-.11s.1.28.12.11zm12.57.44c-.21 0-.08-.37-.33-.33-.11.27.24.63.37.33zm-8.34.56c0-.09-.3-.14-.33 0s.44.24.34 0zm-4.56 1.44c.44-.17.68.42.89.11-.22-.33-.71-.4-.89-.77.21-.16.3-.6-.11-.67a12.64 12.64 0 00.12 1.33zm-1.06-.89h.22V41H499zm2 .34c-.16 0-.19-.19-.33-.23-.14.23.24.5.33.23zm-1.67.22c-.09-.17-.36-.16-.55-.22-.19.35.94.29.51.22zm4.89 1c.3 0 .39.28.67.33 0-.13.13-.06.22 0 0-.17 0-.38.23-.33-.13-.47-.59-.6-.67-1.11-.17.38-.48.6-.49 1.11zm5.9-.44c.05-.36.72-.1.55-.67-.36.01-.92.38-.59.67zm-7.67-.45c0-.06-.09-.13-.12 0s.05.16.08 0zm1 .11c0-.11-.09-.29-.11-.11s.04.29.07.16zm-4 .56c0-.21.13-.25.11-.45a.23.23 0 10-.16.45zm3.45.22c.5.06.37-.58 0-.56-.26.22-.06.28-.05.56zm1.22-.11c-.08 0-.22 0-.22.11s.17 0 .17-.11zm7.57.44c0-.06-.09-.12-.12 0s.04.13.07 0zm-13.79.78c.29 0 .65.06.66-.22-.2-.15-.72-.11-.71.22zm11-.22a.12.12 0 00-.23 0c-.01.13.09.07.19 0zm6 .22c0-.06-.09-.12-.11 0s.05.16.07 0zm-16 .34c0-.16.18-.19.22-.34-.28-.1-.55.29-.27.34zm11.56.33c0-.26.39-.21.34-.56-.33-.04-.54.54-.39.56zm2.11-.33c.07 0 .14 0 .12.11h.22c0-.13 0-.32-.11-.34-.05.15-.25.11-.28.23zm-12.67.11c-.31.34.34-.31 0 0zm12.34-.11c-.09 0-.22 0-.22.11s.17-.01.17-.11zm-1.33.55c.36 0 1.22-.1.89-.44-.25.25-.87.07-.94.44zm.89.45c.32 0 .56 0 .66-.23-.28.05-.82-.18-.71.23zm-.45.44v.45c.36.06.52-.08.78-.11-.03-.4-.63-.51-.83-.34zm-9.34.11c-.09 0-.22 0-.22.11s.21 0 .21-.11zm1.78.56c0-.28-.17-.35-.33-.45-.01.22-.01.48.28.45zm.89-.33c-.27.37.37-.27 0 0zm4.78.88c.36 0 .64-.47.22-.55.05.35-.22.34-.27.55zm1-.22c-.14 0-.15-.14-.33-.11-.22.27.33.33.28.11zm-11.9.45c.34.3-.3-.34 0 0zm8.12.55c-.12 0-.17-.16-.22 0s.14.14.17 0zm1.78.23c.25 0 .42 0 .45-.23-.31-.03-.47.03-.5.23zm-4.11.44c.17-.31-.48-.31-.45-.11.16-.03.2.12.4.11zm8.89.67c.36.1.16-.37.34-.45-.35-.03-.42.16-.39.49zm-8.23.55c-.27.05-.08.51.23.34-.19-.36-.06-.61 0-1-.16 0-.19-.19-.34-.23-.42.28-.15.62.1.89zm1.78-.33v.22h.21c.13-.16.12-.27-.11-.33-.04.07-.05.13-.15.11zm-10.34.22c-.64-.32-.29.28 0 0zm1.67.56c-.15 0-.1-.2-.22-.22-.18.26.1.53.17.26zm12.45.22c.33.16.33-.5 0-.33zm1.45.11a.49.49 0 01.11-.33c-.14 0-.15-.14-.33-.11a.47.47 0 00.2.44zm1.78-.33s-.69-.16-.34 0c-.1-.03.41.21.29.04zm-10 .11c-.45-.39-.26.36 0 0zm9.45-.11c-.13 0-.31 0-.33.11.08-.02.25.02.27-.07zm-16.79.11c-.09 0-.22 0-.22.11s.16 0 .16-.11zm12.23.44h.45c0-.16 0-.41-.11-.44-.1.23-.36.22-.4.44zm5.45.12c.6.13.12-.74 0-.45.23.03-.21.19-.06.45zm-18.57-.23c-.13 0-.31 0-.33.11s.25.02.27-.11zm17.79.34a.62.62 0 00.11.33c.3 0 .37-.15.34-.44a.61.61 0 00-.51.11zm-.55.22c.11 0 .13.09.22.11 0-.17 0-.39-.22-.33zm2.67.22h.33c0-.25 0-.42-.22-.44-.1.15-.22.26-.17.44zm1.33 0c-.26 0-.47-.7-.78-.33.2.05.5.61.72.33zm-6-.22v.22h.19c0-.07 0-.13.11-.11v-.22h-.22c-.04.07-.05.15-.14.15zm3.78.22c0-.11-.2-.14-.23 0s.07.07.17 0zm-17.46.34c0-.07 0-.14.11-.12s0-.26-.22-.22c-.02.13-.08.32.05.34zm3.33.11c-.08-.18-.35-.17-.33-.45h-.33v.22c.11 0 .13.09.22.12-.02-.38.31.48.38.11zm13.79.11c.16.23.53-.26.45.33.46-.28.41.13.78.22.22-.21.48-.8.11-1-.34.46-1.22-.01-1.4.45zm-18.12.66c-.08-.34.19-.32.11-.66-.2-.1-.33-.27-.56-.34a.64.64 0 00.39 1zm13.67-.88c0-.12-.19-.14-.22 0 .07-.02.12.16.16 0zm-7.45.11c0 .37-.48-.3-.55.11.04.32.87.26.49-.11zm-4.22.55c-.05.49.14.76.55.78.3-.34.36-.33.78-.11.1-.73-.67-.59-.89-1a1.81 1.81 0 01-.5.33zm-1.89.45c.44.17.72-.38.44-.56-.08.31-.42.31-.5.56zm19.57-.34c0 .44.41.41.67.56 0-.32-.38-.22-.23-.67a.64.64 0 00-.5.11zm-13.68.23c.17 0 .41 0 .45-.12-.21-.14-.48-.14-.51.12zm10.23.22c.21-.05.48 0 .45-.34-.42-.09-.41.18-.51.34zm2.67-.22c-.09 0-.22 0-.22.11s.19-.01.19-.11zm-17.12.66c-.3 0-.39-.27-.67-.33-.12.32.45.59.61.33zM515 53c-.57.27.38.29 0 0zm-15.12.33c.31.15.38-.44.22-.11-.19-.05-.46-.01-.25.07zm1.22-.22c-.09 0-.22 0-.22.11s.19-.04.19-.15zm-5.11.34c-.14 0-.32 0-.34.11.1-.06.29-.02.35-.15zm.55.33c.17 0 .41 0 .45-.11-.26.09-.48-.39-.56-.11.06-.02.1.05.08.18zm18.13-.11c-.18-.06-.6-.43-.78-.11.25-.1.6.35.75.07zM500 54c.27-.13-.13-.52-.22-.22.1-.04.06.15.22.22zm-2 .11c.28 0 .35-.17.44-.33-.33-.07-.52 0-.44.29zm-.78.23a.42.42 0 00.44-.45h-.33c-.01.17-.17.21-.15.41zm-4-.12c.08 0 .12.1.11.23a4.58 4.58 0 001.11 0c-.03-.45-1.12-.67-1.26-.27zm13.67.56c0-.19.34-.69.11-.78-.16.07-.45.57-.15.74zm-11 .56c.28 0 .35-.18.56-.23 0-.4 0-.77.45-.66 0-.3-.16-.37-.45-.34-.01.59-.77.43-.61 1.19zM516 54.18a.11.11 0 00-.22 0c.09-.01.14.17.22 0zm-21.35.45c0 .27.2.24.11.55.28 0 .35-.17.56-.22-.08-.34-.08-.21 0-.55-.38-.06-.47.15-.7.22zm6-.11c0-.06-.09-.13-.12 0s.08.12.1 0zm-.89.44c-.32 0-.2-.47-.56-.44-.29.19.32.77.54.48zm18.12-.22a.11.11 0 00-.22 0c0 .13.1.07.2 0zM508 55a.3.3 0 00.33-.22c-.21-.03-.42-.05-.33.22zm-13.79.22c0-.15.18-.18.22-.33-.26-.14-.53.25-.25.29zm13 .12c.21 0 .48 0 .44-.34s-.46 0-.46.3zm-2.45 0a.3.3 0 00-.22-.34.31.31 0 00.2.3zm11.12-.12c.23 0 .3.23.45.34.25-.23-.4-.85-.47-.38zm-12.34 0c-.34.38.41.34 0 0zm1.67.34c0-.13.19-.25 0-.34-.04.1-.21.22-.02.3zm-3.12.11c0 .31.2.47.56.44v-.22c0-.07 0-.13-.11-.11s0 .13-.11.11 0-.31-.12-.33-.11.09-.24.07zm1.34 0c-.09 0-.22 0-.23.11s.2-.04.21-.15zm-2.34.56c.12.16.51-.41.11-.34V56a2.51 2.51 0 01-.13.19zm15.68 0c-.2 0-.56-.12-.44.22a.64.64 0 00.77.11 1.13 1.13 0 00-.33-.67zm-16.24.11c0-.12-.19-.14-.22 0s.11.03.2-.04zm3.56 0c0-.12-.19-.14-.22 0s.13.03.2-.04zm-.11.89c.27 0 .24-.21.56-.11-.07-.29 0-.4.33-.34 0-.26-.11-.48-.33-.55 0 .19-.15 0-.34 0-.03.4-.2.4-.2.96zm3.78-.45c.35 0 .5-.09.45-.44-.3.13-.66-.22-.67 0 .18-.02.23.15.2.4zm1.23-.22c.53-.05 1 0 1 .44.31 0 .76.1.78-.22-.09 0-.13-.09-.12-.22-.17-.32-.6.52-.55-.22-.47.15-.85-.22-1.1.18zm-9.23.89c-.38-.08-.44.42-.11.44-.09-.41.29-.37.44-.55 0 .13 0 .31.11.33s0-.13.11-.11.09-.13.11-.22c-.62 0-.06-.7-.33-.89-.09.37-.51.36-.35.96zm6.89-.67c.33.17.33-.5 0-.33zm5.78 0c.26 0 .42 0 .45-.22a.27.27 0 00-.47.18zm5.12 0c.05.5.46.28.89.22.06-.29-.46-.56-.56-.33.28.06-.25.33-.35.07zm-14.46.11c0-.06-.09-.12-.11 0s.07.11.09-.04zm15.79.45c0-.28-.17-.35-.33-.45-.04.24.15.31.31.41zm-20 .78c.3.07.21-.23.33-.34h-.33zm-.45.33c.19 0 .06.31.22.33.13-.13.32-.2.23-.55-.29-.07-.45-.02-.48.18zm6.12.11c.34-.08.33.19.67.11.1-.67-.67-.53-.7-.15zm2.89.33c.18-.31-.48-.3-.45-.11.13 0 .19.12.42.07z"/>
    <path fill="#091726" d="M503.75 14.86c-1.1.37-2.34 1.32-2.93 3.66s-4.61 7.18-10.17 6.67-7.47-1.61-9.89-5.05c0 0 .44-2.13 1.54-2.64s1-1.54.22-1-2.49 3-4.61 3h-17.42l-.08-2.35h13.69l1.76-1.83s6.07-.58 6.07-12.22a3 3 0 012.93-2.29s.59-.88-.29-.81-2.56.22-3.66 3.74-5.42 7-11 6.81-8.86-4.69-9.15-5.06 1-2.48 2.12-2.92.59-1.1-.29-.66-2.34 2.85-5.34 2.85h-32.54c-3 0-4.47-2.41-5.34-2.85s-1.4.22-.3.66 2.42 2.56 2.13 2.92-3.59 4.91-9.15 5.06-9.89-3.3-11-6.81S398.28.08 397.4 0s-.29.81-.29.81A3 3 0 01400 3.08c0 11.64 6.08 12.22 6.08 12.22l1.75 1.83h13.69l-.07 2.35h-17.38c-2.13 0-3.81-2.49-4.62-3s-.87.52.22 1 1.54 2.64 1.54 2.64c-2.41 3.44-4.32 4.53-9.88 5.05s-9.59-4.32-10.18-6.67-1.83-3.29-2.92-3.66-2 .81-.81.59 2.49 2.12 2.49 2.12c.15 11.57 6.22 12.37 6.22 12.37l1.76 1.91 13.54-.15-2.27 31.62 3 .08 1.25-26.57 17.13-.22L419 66.91h3.29l1.32-41.8h2v4.1h.87v-4.1h1.62v4.1h.9v-4.1h1.62v4.1h.87v-4.1h1.62v4.1h.87v-4.1h1.62v4.1h.88v-4.1h1.62v4.1h.87v-4.1h1.62v4.1h.87v-4.1H443v4.1h.88v-4.1h1.62v4.1h.87v-4.1H448v4.1h.87v-4.1h1.63v4.1h.87v-4.1H453v4.1h.87v-4.1h1.62v4.1h.87v-4.1h2l1.32 41.8H463l-1.54-30.3 17.13.22 1.24 26.57 3-.08-2.29-31.62 13.55.15 1.75-1.91s6.08-.8 6.23-12.37c0 0 1.31-2.34 2.48-2.12s.3-.95-.8-.59z"/>
    <path fill="#13263d" d="M521.23 52.15q-47 3.2-94.1 4.69c-39.13 1.25-78.34 1.63-117.39-1.05-9.1-.62-18.25-1.41-27.31-.43-6.95.75-13.75 2.53-20.67 3.52-18.8 2.69-37.89-.5-56.89-.72-25-.28-50.22 4.59-74.93.62-12.6-2-24.75-6.31-37.32-8.55-10.5-1.88-21.2-2.31-31.86-2.73l-50.84-2a54.76 54.76 0 00-9.92.16v23.58h516.92z"/>
    <path fill="#091726" fill-rule="evenodd" d="M33.45 41.89a.35.35 0 01.3-.16.65.65 0 01.41.21c.16.15.4.35.55.19a1.3 1.3 0 01-.24-.41 2 2 0 001 .06c-.11-.09 0-.28 0-.4s.21-.25.17-.4-.26-.2-.43-.18-.36.07-.5 0a.35.35 0 01-.08-.44.53.53 0 01.39-.27.87.87 0 01.82.25c.17.18.26.44.44.63s.52.26.67.05a.4.4 0 00-.09-.49 1 1 0 00-.5-.2 1 1 0 01-.34-.1.27.27 0 01-.11-.31l.06-.08c.21-.17.54 0 .72.16a4 4 0 00.51.64.78.78 0 00.78.11c.25-.1.44-.42.27-.63s-.51-.18-.59-.41a.48.48 0 10-.48-.75c-.09.12-.17.29-.31.25v-.53a.61.61 0 00-.45.2.76.76 0 01-.44.25c-.17 0-.35-.18-.26-.32-.17-.07-.34.09-.48.21s-.4.2-.47 0a1.1 1.1 0 000-.54c-.18 0-.28.22-.37.37s-.52.43-.73.23a.46.46 0 01.13-.66 1.33 1.33 0 01.74-.14.71.71 0 01-.32-.22.26.26 0 010-.35.49.49 0 01.16-.05l.7-.09c-.06-.22-.26-.38-.37-.59s0-.56.22-.53.27.71.61.71a.86.86 0 01.15-.68c.1-.21.18-.49 0-.67a1.71 1.71 0 00-.35-.21c-.11-.07-.19-.24-.1-.34s.25 0 .36-.09.12-.35 0-.53c-.22 0-.56 0-.55-.21s.17-.24.32-.24 1.39.82 1.22.13c0-.19-.26-.29-.45-.31a5.63 5.63 0 01-.59 0c-.18-.05-.37-.23-.33-.42l1.54.06a.37.37 0 00.29-.08c.14-.17-.13-.38-.34-.44s-.46-.3-.3-.45l1.78.29c.23 0 .56 0 .54-.24s-.49-.32-.44-.57a.31.31 0 01.14-.16c.21-.15.48-.22.68-.38s.32-.49.13-.67a.47.47 0 00-.59 0c-.18.12-.31.3-.49.43a1 1 0 01-1.54-.74c-.33.22-.25.77-.55 1s-.68.12-1-.05a.53.53 0 01-.28-.29c-.07-.24.19-.44.44-.51s.52-.09.67-.29a.77.77 0 01-.13-.89 2.21 2.21 0 01.63-.73l.55.81c.29-.21.33-.68.65-.82a.66.66 0 01.75.32c.17.25.24.54.41.79a1.31 1.31 0 001.46.5.52.52 0 01-.35-.54c0-.24.08-.47.07-.7a.3.3 0 000-.19c-.22-.39-1.06.06-1.19-.37-.06-.18.1-.36.22-.52s.18-.42 0-.51-.3.07-.44.17a1 1 0 01-1.1 0 2.32 2.32 0 00.49-.5l-1.15-.09c-.08-.28.27-.5.56-.54s.64 0 .81-.28a.61.61 0 01-.57-.75c.12-.34.73-.37.83 0 .06.19 0 .41 0 .6s.35.26.57.3.28 0 .37-.07-.06-.44 0-.65.47-.18.63 0 .21.47.35.68a.71.71 0 00.89.25.52.52 0 00.06-.84c-.19-.13-.45-.08-.68-.11s-.49-.27-.36-.47a.39.39 0 00.63-.21.53.53 0 00-.44-.58c-.26-.05-.52.08-.78 0s-.47-.41-.25-.54c.06 0 .14-.05.19-.1s0-.32-.18-.36-.33 0-.49 0a.57.57 0 01-.23-.8 1.38 1.38 0 01.77-.54c-.33 0-.76-.06-.8-.38s.23-.46.49-.52a2.33 2.33 0 00.75-.22.49.49 0 11.21-.93c.25.12.39.44.67.47a.44.44 0 01.77-.36.93.93 0 00-.24.69.56.56 0 00.46.52.41.41 0 00.47-.44 1.09 1.09 0 00-.27-.41c-.09-.13-.15-.34 0-.45L43 20a.42.42 0 10.65.4.78.78 0 00-.38-.64 1.22 1.22 0 01-.53-.55c-.09-.25.13-.59.37-.5s.21.22.3.35a.5.5 0 00.47.26.28.28 0 00.2-.42c-.12-.12-.37-.11-.41-.27s.4-.34.38-.59-.36-.18-.58-.23a.48.48 0 01-.38-.48.47.47 0 01.41-.45.52.52 0 00.52.33.49.49 0 00.43-.43 1.46 1.46 0 010-.31.48.48 0 01.34-.2c.42-.09 1-.08 1.15.32a.69.69 0 01-.17.73 2 2 0 01-.67.43 1.17 1.17 0 01.62.2.39.39 0 010 .58c-.12.08-.29.06-.4.14s-.08.43.11.54a1 1 0 00.63 0 1.07 1.07 0 00.9.93 1.24 1.24 0 01.71-.71.58.58 0 01.76.47c0 .34-.37.56-.7.59a5.47 5.47 0 00-1 .08 1.05 1.05 0 01-.87 1.22 1 1 0 001.11.63.38.38 0 01.32-.64c.42.1.39.79.78 1a1.1 1.1 0 01.23-.78c.2-.21.65-.14.67.14 0 .46-.95.52-.85 1a1 1 0 01.6 0 .35.35 0 01.21.48c-.1.16-.32.16-.5.14h-.67c-.25 0-.56 0-.69.2a.49.49 0 00.26.62 1.42 1.42 0 00.74 0 .87.87 0 00-.39.39.36.36 0 00.2.46c.19.05.36-.12.5-.25s.39-.24.52-.1c0 .44-.14.48-.33.84a.41.41 0 00.2.54.25.25 0 00.17 0c.13 0 .18-.19.23-.32a1 1 0 01.7-.71c.34-.07.74.23.66.57a.61.61 0 01-.19.29 1.21 1.21 0 01-1 .3 1.12 1.12 0 00-.34-.09c-.11 0-.21.09-.21.2s.1.18.17.27a.48.48 0 01-.05.66.23.23 0 01-.15.07c-.25 0-.23-.45-.46-.54s-.48.4-.77.35-.26-.33-.46-.41a.52.52 0 00-.25 0 1.59 1.59 0 00-.71.25.62.62 0 00-.24.67.4.4 0 00.61.19 1.75 1.75 0 00.18-.29c.06-.09.19-.16.28-.11s.1.21.18.29.37-.06.55-.17a.56.56 0 01.65.06.45.45 0 010 .63 2.08 2.08 0 01.74-.11.41.41 0 01.27.07c.22.16 0 .5-.16.69s-.37.54-.15.7a.37.37 0 00.47-.13c.12-.14.17-.32.29-.46a.37.37 0 01.47-.11c.16.12.1.38 0 .54s-.32.27-.39.46a5.47 5.47 0 00.7-.4.61.61 0 01.74.07.52.52 0 01-.25.72 1.52 1.52 0 01-.85.07 1.14 1.14 0 01.51.17.37.37 0 01.13.46c-.12.21-.43.16-.65.08a3.24 3.24 0 00-.86-.24.65.65 0 00-.47.13.34.34 0 00-.08.44c.15.19.44.11.66 0a1.06 1.06 0 01.6-.11c.2 0 .37.28.29.46s-.39.27-.39.48.24.28.41.2.26-.25.36-.4.22-.33.4-.36a.38.38 0 01.39.5c-.08.16-.26.24-.39.36s-.22.34-.08.45c.24-.07.43-.25.67-.34s.57 0 .61.24-.27.42-.53.45-.55 0-.72.21c0 .21.37.29.37.5s-.2.23-.36.24a1.38 1.38 0 01-.79-.18.9.9 0 00-.32-.13c-.29 0-.39.39-.37.68a.54.54 0 000 .22.39.39 0 00.53 0 5.32 5.32 0 01.47-.36c.18-.09.45 0 .49.15.08.34-.61.46-.57.81s.32.28.49.16a.69.69 0 00.22-.55.35.35 0 01.07-.27.3.3 0 01.29 0c.14.05.29.11.33.25s-.27.35-.4.55a.41.41 0 00.07.51.41.41 0 00.51 0c.18-.16.18-.44.25-.67s.39-.43.54-.25l-.15 1a1.16 1.16 0 01.61-.51c.27-.05.59.22.48.46s-.18.18-.24.29a.33.33 0 00.09.43.34.34 0 00.43-.06c.21-.25 0-.66.09-1 .21-.49.75-.16.71.27a1 1 0 01-.67.87c-.2 0-.5.11-.44.3a3.08 3.08 0 011 0 2.5 2.5 0 00-.2.62c-.08.2-.31.38-.5.27s-.17-.32-.33-.38-.38.35-.62.5-.57 0-.83-.2-.67-.23-.78.05 0 .33 0 .48-.5.25-.79.19-.72 0-.69.33.48.48.34.72-.36.09-.54 0a.84.84 0 00-.6-.06.38.38 0 00-.22.5c.14.23.59.24.58.51s-.4.3-.48.54a.32.32 0 00.23.39.94.94 0 00.5 0c.23 0 .49-.11.57-.33a2.71 2.71 0 000-.41.42.42 0 01.58-.27.4.4 0 01.05.63.66.66 0 111 .89c.22.13.51 0 .76-.08s.62 0 .61.26c0 .41-.87.31-.89.72 0 .21.25.33.45.29a1.31 1.31 0 00.5-.34.7.7 0 01.54-.24.42.42 0 01.12.76c-.11 0-.23 0-.34.1s-.18.21-.1.29.11 0 .18 0c.27 0 .62-.11.77.12a.4.4 0 01-.08.48 1.17 1.17 0 01-.45.25 1 1 0 00.67.13 1 1 0 01.67.16c.17.15.18.5 0 .58s-.47-.07-.67-.18a.54.54 0 00-.57.07 5.31 5.31 0 00.81.44.76.76 0 00-.86.22.49.49 0 00.3.73c.3 0 .52-.3.81-.32a.45.45 0 01.43.34.49.49 0 01-.2.51c-.13.09-.32.13-.36.28s.18.32.35.3a1.54 1.54 0 00.49-.22.42.42 0 01.5 0c.18.2-.06.52-.3.66s-.55.33-.5.6.4.35.66.26a7 7 0 01.74-.33c.26-.05.61.13.56.39s-.63.33-.77.65c.48.17 1-.47 1.46-.26a.46.46 0 01.09.74 1.06 1.06 0 01-.75.11c-.26 0-.58 0-.66.3a.52.52 0 11.14.9 1.09 1.09 0 01-.51-.6c-.18.06-.25.26-.36.42s-.37.25-.47.09.19-.49 0-.66a1.88 1.88 0 00-1 .21.49.49 0 00-.46-.72 1.1 1.1 0 01-.21.45.38.38 0 01-.46.1.51.51 0 01-.15-.46 1.06 1.06 0 000-.5c-.06-.16-.28-.27-.4-.15-.19.37.54.76.34 1.13a.35.35 0 01-.48.09.63.63 0 01-.25-.46c-.16.23-.45.5-.69.34s-.14-.41-.15-.64-.27-.49-.43-.33c0 .34-.1.8-.45.81s-.46-.49-.45-.85a.9.9 0 01-.2.57.36.36 0 01-.54 0c-.1-.14 0-.34-.09-.51a.4.4 0 00-.53-.22.31.31 0 00-.14.16c-.08.31.53.38.59.69s-.25.37-.46.3a1 1 0 01-.45-.44.84.84 0 01-.26.38.3.3 0 01-.41 0c-.08-.12-.06-.34-.2-.37s-.19.12-.29.2a.37.37 0 01-.49-.12 1.06 1.06 0 01-.16-.53c-.09-.07-.22 0-.26.13a2 2 0 01-.1.32.4.4 0 01-.61 0 .91.91 0 01-.15-.67c-.12-.08-.27.1-.25.24s.13.27.15.41c.06.4-.46.6-.85.66.14.18.38.27.54.45s.2.51 0 .6-.31 0-.46-.12-.35-.11-.43 0a.64.64 0 00.64.43c.07.37-.33.41-.54.58a.74.74 0 00-.28.63 21.31 21.31 0 00-.06 2.4c0 1.65.14 3.3.13 5H42.3a70.93 70.93 0 00.29-7.21.27.27 0 00-.08-.17.22.22 0 00-.14 0h-.62a6.41 6.41 0 00.45-.58c-.16-.19-.55.09-.71-.1s.38-.57.23-.85c-.28-.09-.63.26-.82 0s0-.3.06-.42a.82.82 0 00.24-.38h-.62l.23-.67-1.14.16c-.12-.23.32-.54.13-.73a.41.41 0 00-.15-.07.75.75 0 00-.36 0 .29.29 0 00-.23.25c0 .13.13.22.14.35a.26.26 0 01-.24.23.76.76 0 01-.36-.06 2.2 2.2 0 000 .44.34.34 0 01-.18.36c-.16.06-.32-.09-.47-.18s-.43 0-.4.13a.33.33 0 00.12.17.44.44 0 01.12.39.27.27 0 01-.33.19c-.25-.08-.2-.52-.44-.63-.09.13 0 .31 0 .47s-.09.37-.24.31-.21-.24-.3-.15a.52.52 0 010 .44.32.32 0 01-.38.15.25.25 0 01-.1-.54c-.11-.11-.29 0-.4.1s-.26.24-.4.18-.12-.34 0-.45a2.71 2.71 0 01.49-.22c.16-.09.28-.31.16-.45h-.4V52c.14 0 .3-.14.31-.29s-.14-.25-.28-.29a2 2 0 01-.42-.12c-.12-.07-.21-.24-.11-.35s.27 0 .4.09.34 0 .33-.12-.37-.14-.42-.32.1-.22.22-.22.23 0 .35.06a.45.45 0 00.2-.86.89.89 0 00-.82.22c0-.25.09-.49.14-.73a.92.92 0 00-.82.74v-.64c-.12-.08-.28 0-.31.17s.07.69-.35.66c-.24 0-.43-.37-.65-.45s-.42 0-.63.21-.41.51-.53.21v-.22c0-.07-.37-.08-.42.11a2.3 2.3 0 000 .58c0 .19-.2.41-.36.31s-.12-.25-.07-.38a.72.72 0 00.1-.4c-.06-.27-.43-.29-.7-.25.13-.24.25-.57.06-.77s-.44-.14-.67-.11-.53 0-.64-.19a.43.43 0 01.28-.53 1.35 1.35 0 01.66 0 .8.8 0 01-.34-.26.28.28 0 01.04-.36.34.34 0 01.26 0c.24.09.45.25.69.35a.68.68 0 00.73 0c-.17-.25-.7-.08-.79-.37s.18-.35.37-.31a.88.88 0 01.44.35.27.27 0 01-.17-.41.31.31 0 01.47 0c.09.14.06.33.14.47a.45.45 0 00.71 0 1.1 1.1 0 00.14-.8c0-.18-.09-.41-.28-.43s-.23.07-.34.12-.27.07-.33 0 .4-.51.2-.67a1.85 1.85 0 00-.53 0c-.18 0-.38-.11-.39-.29s.35-.32.59-.25.52.18.71 0a.22.22 0 00.08-.13c0-.25-.55-.05-.63-.3a1.43 1.43 0 01.5-.18c-.08-.28-.61-.21-.67-.5s.09-.27.22-.33a.65.65 0 01.63.08c.19.16.28.42.46.58s.58.15.59-.1-.28-.32-.51-.32-.52 0-.57-.26a.87.87 0 00.67-.29c-.27-.06-.6-.23-.53-.49s.41-.24.64-.15.52.2.71 0c.07-.41-.85-.42-.82-.84a.2.2 0 01.06-.14zm10.75-20.6c0-.06-.09-.13-.12 0s.09.13.12 0zm.22.22c0-.13.2-.25 0-.33-.02.13-.2.25 0 .33zm-.34.56v.22c.28.17.33-.38.12-.33-.01.04-.02.13-.12.11zm-3.44.11v.22H41v-.33h-.22c-.04.07-.05.13-.14.11zm3 0c-.13 0-.17-.16-.22 0a.11.11 0 00.22 0zm1.22.22h.22v-.22h-.22zm-3.67.33c-.08 0-.22 0-.22.12s.22-.01.22-.12zm1.67.12c.38.33.34-.42 0 0zm-1.44.44a.31.31 0 00-.23-.33c.01.17-.01.38.23.33zm.77-.11h.23V23h-.23zm-1.78.56c0-.15.2-.11.23-.23-.17 0-.47-.47-.56-.22.31-.05.11.42.33.45zm2 .44c.31.18.3-.48.11-.44s-.15.26-.1.44zm3.33.22c.3.08.22-.23.34-.33-.24-.02-.35.09-.33.33zm-1.22.67c.13 0 .07-.16 0 0zm.67.45c.19.2.43 0 .44-.34-.28-.03-.47.04-.43.34zm-.34.22c0-.06-.09-.13-.11 0s.1.12.12 0zm3.12 1a.12.12 0 00-.23 0c.14-.01.19.16.26 0zm-6 .78c.58-.18.44.37.67.55.56-.56-.26-1.17-.78-1.33-.09.38.14.43.14.78zm-2-.45c0-.11-.09-.29-.11-.11s.08.29.14.11zm5.56 1c0-.26-.11-.48-.33-.55 0 .29-.11.69.33.55zm-2.45-.33c0-.06-.09-.13-.11 0s.09.13.11 0zm-.11.44v.23h.22c.13-.16.12-.28-.11-.34 0 .07-.01.13-.08.11zm1.34 0c-.27.38.37-.27 0 0zm-1.45.45c-.09 0-.22 0-.22.11s.22 0 .22-.11zm2.89.11c0-.06-.09-.13-.11 0s.09.13.11 0zm.11.22c.15 0 .16.14.34.11a.31.31 0 00-.23-.33c.03.11-.09.13-.11.26zm-5.56.56c.35-.18.44-.1.67-.22-.22 0-.14-.31-.44-.23-.01.22-.31.14-.23.45zm2.23.11a.31.31 0 00-.23-.33c.02.17-.01.38.23.33zm5.33.11c0-.29-.23-.29-.44-.33-.1.36.36.15.44.33zm-9.67.11c-.09 0-.22 0-.22.11s.22.04.22-.11zm-.56.11c-.08 0-.22 0-.22.11s.22 0 .22-.07zm3.45.11c.34.31-.3-.33 0 0zm6.45 0c-.11 0-.13-.09-.22-.11-.31.18.16.38.22.11zm-7.67.56c0-.06-.09-.13-.11 0s.09.13.11 0zm6.89-.11c-.08 0-.22 0-.22.11s.22 0 .22-.11zm-4.56.89c.23-.36.31-.82-.33-.78-.05.42.05.69.33.78zm7.45-.78h-.33c-.09 0-.22 0-.22.11.16-.06.57.13.55-.11zm-5.56.22a.11.11 0 00-.22 0c.14-.01.14.15.22 0zm-4.67.34c0-.07-.09-.13-.11 0s.09.12.11 0zm5.9.44c.42.09.43-.24.55-.44-.21 0-.24-.13-.44-.11a.66.66 0 00-.11.55zm2.22-.44c-.13 0-.31 0-.33.11s.31.02.33-.11zm-4.45.22c0-.06-.09-.13-.11 0s.09.12.11 0zm1.34.67c0-.25.39 0 .55-.12v-.44c-.44-.25-.86.17-.55.56zm6.45 1.55c.2.35.62-.22.33-.33-.01.21-.37.08-.33.33zm-12.9 0c0-.11-.09-.28-.11-.11s.08.29.14.11zm12.56.45c-.21 0-.07-.37-.33-.34-.12.26.23.64.33.34zm-8.34.55c0-.09-.29-.13-.33 0s.43.24.33 0zm-4.56 1.45c.44-.17.68.42.89.11-.22-.34-.71-.4-.89-.78.21-.16.3-.59-.11-.67.07.4 0 .79.11 1.34zm-1.11-.89h.22V35h-.22zm2 .33c-.15 0-.18-.18-.33-.22-.1.23.29.5.33.22zm-1.66.23c-.1-.17-.36-.17-.56-.23-.15.36.98.29.56.23zm4.89 1c.29 0 .39.27.67.33 0-.13.12-.07.22 0 0-.17 0-.39.22-.33-.12-.47-.58-.61-.67-1.12-.13.37-.43.6-.44 1.12zm5.89-.45c0-.36.73-.09.56-.67-.33.02-.89.37-.56.67zM40 35.86c0-.07-.09-.13-.11 0s.11.14.11 0zm1 .14c0-.12-.09-.29-.11-.11s.05.25.11.11zm-4 .55c0-.21.12-.24.11-.44-.41-.11-.47.39-.11.41zm3.44.23c.5 0 .37-.59 0-.56-.23.18-.04.25-.03.53zm1.23-.11c-.09 0-.22 0-.22.11s.18-.04.19-.14zm7.56.44c0-.06-.09-.13-.11 0s.06.1.08-.03zm-13.79.78c.3 0 .65.06.67-.22-.18-.19-.7-.14-.7.19zm11-.22a.11.11 0 00-.22 0c0 .1.1.03.2-.03zm6 .22c0-.06-.09-.13-.11 0s.07.11.09-.03zm-16 .33c0-.16.18-.19.22-.33-.26-.13-.53.26-.25.3zm11.56.31c0-.27.38-.21.33-.56-.33-.04-.51.54-.33.56zm2.11-.34c.07 0 .13 0 .11.11h.22c0-.13 0-.31-.11-.33-.02.15-.21.1-.24.22zm-12.68.11c-.3.34.34-.3 0 0zm12.35-.11c-.09 0-.22 0-.23.11s.2 0 .21-.11zm-1.34.56c.36 0 1.22-.11.89-.45-.21.25-.84.08-.91.45zm.89.44c.32 0 .57 0 .67-.22-.25.03-.8-.18-.69.22zm-.44.45v.44c.36.07.51-.07.77-.11.01-.4-.59-.5-.79-.33zm-9.35.11c-.08 0-.21 0-.22.11s.2 0 .2-.11zm1.78.55c0-.27-.17-.34-.33-.44.01.21.01.48.31.44zm.89-.33c-.27.37.38-.27 0 0zm4.79.89c.35 0 .63-.47.22-.56.07.36-.22.35-.22.56zm1-.22c-.15 0-.16-.14-.34-.11-.19.27.34.32.34.11zm-11.9.44c.34.31-.31-.34 0 0zm8.12.56c-.13 0-.18-.16-.23 0s.18.14.21 0zm1.77.22c.26 0 .42 0 .45-.22-.27-.03-.44.03-.44.22zm-4.11.45c.18-.31-.48-.31-.44-.11.19-.03.22.12.42.11zm8.9.66c.35.1.15-.36.33-.44-.31-.04-.39.15-.35.47zm-8.23.56c-.28 0-.09.51.22.33-.18-.35 0-.6 0-1-.16 0-.19-.18-.33-.22-.39.27-.13.62.09.89zm1.78-.33v.22h.22c.12-.16.12-.27-.11-.34-.03.07-.04.14-.13.12zM34 43.42c-.64-.32-.29.27 0 0zm1.67.55c-.14 0-.1-.19-.22-.22-.17.25.13.53.18.25zm12.46.23c.32.16.32-.5 0-.34zm1.44.11a.62.62 0 01.11-.34c-.14 0-.15-.14-.33-.11a.51.51 0 00.18.45zm1.74-.31s-.69-.16-.33 0c-.06 0 .45.19.33 0zm-10 .12c-.45-.4-.26.35 0 0zm9.45-.12c-.13 0-.32 0-.34.12.13-.05.32-.02.34-.12zM34 44.09c-.08 0-.21 0-.22.11s.22-.01.22-.11zm12.24.44h.44c0-.17 0-.41-.11-.44-.07.22-.34.21-.37.44zm5.45.11c.59.13.12-.73 0-.44.24.02-.2.19-.04.44zm-18.57-.22c-.14 0-.32 0-.34.11.09-.02.28.02.3-.11zm17.79.33a.5.5 0 00.11.34c.29 0 .36-.16.33-.45a.64.64 0 00-.48.11zm-.56.23c.11 0 .13.09.22.11 0-.18 0-.39-.22-.34zm2.65.22h.33c0-.26 0-.42-.22-.45-.05.15-.18.25-.11.45zm1.33 0c-.25-.05-.47-.71-.77-.34.23.05.54.62.75.34zm-6-.22v.22h.22c0-.07 0-.13.11-.11v-.23h-.22c-.03.07-.04.14-.13.14zm3.78.22a.11.11 0 00-.22 0c0 .13.11.07.2 0zm-17.46.33c0-.07 0-.13.11-.11 0-.14 0-.26-.22-.22 0 .13-.04.31.09.33zm3.34.11c-.09-.17-.36-.16-.34-.44h-.35v.22c.11 0 .13.09.22.11.08-.38.37.47.48.11zm13.79.11c.15.23.53-.25.44.34.46-.28.42.13.78.22.23-.22.49-.8.11-1-.3.45-1.17-.02-1.35.44zm-18.13.67c-.08-.34.19-.33.11-.67a3 3 0 00-.55-.33.64.64 0 00.42 1zm13.68-.89a.11.11 0 00-.22 0c.1-.01.15.16.2 0zm-7.45.11c0 .37-.49-.29-.56.11.08.32.91.25.54-.11zm-4.23.56c0 .49.14.75.56.78.29-.34.35-.33.78-.11.09-.73-.67-.59-.89-1a1.9 1.9 0 01-.47.33zm-1.89.44c.44.18.73-.37.45-.55-.04.31-.39.3-.47.55zm19.57-.33c0 .43.42.4.67.56 0-.32-.38-.22-.22-.67a.61.61 0 00-.47.11zm-13.67.22c.16 0 .41 0 .44-.11-.17-.14-.43-.15-.46.11zm10.23.22c.21 0 .47 0 .44-.33-.33-.1-.33.17-.46.33zm2.67-.22c-.09 0-.22 0-.23.11s.2 0 .21-.11zm-17.13.67c-.3 0-.39-.28-.67-.33-.07.32.49.59.65.33zm17.11-.2c-.58.27.38.28 0 0zm-15.13.33c.31.15.38-.44.22-.11-.15-.03-.42 0-.22.09zm1.23-.22c-.09 0-.22 0-.23.11s.22-.02.23-.13zm-5.12.33c-.13 0-.32 0-.33.11s.31 0 .33-.13zm.56.34c.16 0 .41 0 .44-.12-.26.1-.48-.38-.56-.11.09.01.13.08.12.21zm18.12-.12c-.17 0-.59-.42-.78-.11.29-.07.63.38.78.09zM37.52 48c.27-.13-.12-.53-.22-.22.15-.02.1.22.22.22zm-2 .11c.28 0 .35-.17.45-.33-.29-.06-.48.02-.45.31zm-.78.22a.42.42 0 00.45-.44h-.34c.03.19-.12.22-.11.42zm-4-.11c.09 0 .13.09.11.22a4.58 4.58 0 001.11 0c.04-.44-1.07-.65-1.22-.24zm13.68.56c0-.2.33-.69.11-.78-.12.09-.42.58-.11.76zm-11 .55c.28 0 .34-.17.55-.22 0-.4 0-.77.45-.67 0-.29-.15-.36-.45-.33.03.61-.72.45-.56 1.2zm20.12-1.13a.12.12 0 00-.23 0c.13-.01.18.16.23 0zm-21.35.44c0 .27.2.25.11.56.27 0 .34-.17.55-.22a.68.68 0 010-.56c-.35-.05-.43.16-.66.22zm6-.11c0-.06-.09-.12-.11 0s.09.13.11 0zm-.89.47c-.32 0-.19-.48-.56-.45-.27.17.34.76.56.45zm18.13-.22c0-.12-.2-.14-.23 0s.13.04.23-.02zm-9.9.22a.32.32 0 00.33-.22c-.17-.01-.38-.04-.33.22zm-13.79.22c0-.16.18-.19.22-.33-.23-.12-.5.27-.22.31zm13 .11c.21 0 .48 0 .45-.33-.19-.22-.43 0-.44.31zm-2.45 0a.3.3 0 00-.22-.33.32.32 0 00.23.31zm11.12-.11c.23 0 .3.22.45.33.28-.21-.36-.83-.44-.35zm-12.34 0c-.34.38.41.34 0 0zm1.67.33c0-.13.2-.25 0-.33-.01.11-.19.23.01.31zm-3.11.12c0 .31.19.47.55.44v-.22c0-.07 0-.13-.11-.11s0 .13-.11.11 0-.32-.11-.34-.08.11-.21.1zm1.33 0c-.09 0-.22 0-.22.11s.26-.03.26-.13zm-2.33.55c.12.16.5-.4.11-.33V50zm15.67 0c-.19 0-.55-.11-.44.22a.66.66 0 00.78.12 1.08 1.08 0 00-.34-.67zm-16.23.11a.11.11 0 00-.22 0c.03.12.15.05.23-.02zm3.56 0a.11.11 0 00-.22 0c.03.12.13.05.23-.02zm-.11.89c.26 0 .24-.2.55-.11-.06-.29.05-.4.34-.33 0-.26-.12-.48-.34-.56 0 .19-.14 0-.33 0-.01.43-.14.42-.21.98zm3.78-.44c.35.05.49-.1.44-.45-.29.13-.65-.21-.67 0 .21.01.27.17.24.43zm1.22-.22c.53 0 1 0 1 .44.32 0 .76.1.78-.22-.09 0-.13-.1-.11-.22-.18-.33-.6.51-.56-.23-.44.18-.81-.19-1.1.21zm-9.23.88a.23.23 0 10-.11.45c-.08-.42.29-.38.44-.56 0 .13 0 .32.12.34s0-.13.11-.11.09-.14.11-.23c-.63 0-.06-.69-.34-.89-.02.4-.48.38-.32.98zm6.9-.66c.32.16.32-.5 0-.34zm5.78 0c.25 0 .42 0 .44-.22a.26.26 0 00-.41.2zm5.11 0c.06.5.47.28.89.22.07-.3-.46-.57-.55-.33.31.07-.23.33-.33.09zm-14.45.11c0-.06-.09-.13-.11 0s.1.11.12-.02zm15.79.44c0-.27-.17-.34-.34-.44-.01.26.18.33.35.42zm-20 .78c.3.08.22-.23.33-.33h-.33zm-.44.34c.18 0 .06.3.22.33.12-.13.32-.2.22-.56-.26-.05-.42.01-.42.21zm6.11.11c.34-.08.33.19.67.11.13-.67-.64-.51-.68-.13zm2.89.33c.18-.31-.48-.31-.44-.11.14.01.2.14.46.09zM65.55 49a.35.35 0 01.3-.16.6.6 0 01.41.2c.16.15.4.36.55.2a1.55 1.55 0 01-.25-.41 2.08 2.08 0 001 .06c-.11-.1 0-.29 0-.4s.21-.26.17-.4-.26-.2-.43-.18-.36.07-.5 0a.37.37 0 01-.09-.45.63.63 0 01.4-.27.9.9 0 01.81.25c.18.19.27.45.45.63s.52.27.67.06a.39.39 0 00-.1-.49.93.93 0 00-.49-.2.8.8 0 01-.34-.11A.26.26 0 0168 47s0-.05.06-.07c.21-.18.54-.05.72.16a5.23 5.23 0 00.5.64.83.83 0 00.79.11c.24-.1.43-.42.27-.63s-.51-.18-.59-.41a.48.48 0 10-.49-.75c-.08.11-.17.29-.3.25v-.54a.63.63 0 00-.45.21.76.76 0 01-.43.25c-.17 0-.35-.18-.26-.32-.17-.08-.34.09-.48.21s-.4.2-.48 0a1.1 1.1 0 000-.54c-.19 0-.28.21-.37.37s-.52.43-.73.23a.44.44 0 01.13-.66 1.31 1.31 0 01.74-.14.91.91 0 01-.32-.22.24.24 0 01.2-.4l.7-.09c-.06-.23-.27-.39-.37-.6s0-.55.22-.53.27.71.6.72a.94.94 0 01.15-.68c.11-.22.19-.5 0-.68a2 2 0 00-.35-.2c-.11-.07-.2-.24-.1-.34s.25 0 .36-.09.12-.35 0-.53c-.22.05-.56 0-.56-.21s.18-.24.32-.25 1.4.83 1.23.14a.5.5 0 00-.45-.32 2.88 2.88 0 01-.59 0c-.19-.05-.37-.22-.33-.41l1.54.05a.33.33 0 00.29-.07c.13-.17-.13-.38-.34-.45s-.46-.3-.3-.45l1.78.3c.22 0 .56 0 .54-.25s-.5-.32-.44-.56a.25.25 0 01.13-.17c.22-.14.48-.21.69-.37s.32-.49.13-.68a.5.5 0 00-.6 0c-.17.13-.31.31-.48.43a1 1 0 01-1.54-.74c-.34.22-.25.78-.55 1a.92.92 0 01-1-.06.57.57 0 01-.29-.28c-.06-.24.2-.45.44-.51s.53-.09.68-.29a.77.77 0 01-.13-.9 2.16 2.16 0 01.71-.68l.55.81c.29-.21.32-.68.65-.82a.65.65 0 01.75.32c.17.24.24.54.41.78a1.31 1.31 0 001.45.51.54.54 0 01-.34-.55c0-.23.08-.46.07-.7a.45.45 0 000-.19c-.22-.39-1.06.07-1.2-.36-.06-.19.11-.36.23-.52s.18-.43 0-.51-.31.07-.44.17a1 1 0 01-1.1 0 2.28 2.28 0 00.48-.5l-1.14-.09c-.08-.29.26-.5.56-.54s.64 0 .8-.29a.6.6 0 01-.57-.74.47.47 0 01.84 0v.59c0 .18.35.27.57.3a.43.43 0 00.37-.06c.14-.17-.06-.44 0-.65s.47-.19.63 0 .2.46.35.67a.72.72 0 00.89.26.53.53 0 00.06-.85 1.92 1.92 0 00-.69-.11c-.23 0-.48-.27-.36-.47a.39.39 0 00.63-.2.51.51 0 00-.43-.58c-.26 0-.52.07-.78 0s-.48-.4-.25-.54c.06 0 .14 0 .19-.09s0-.32-.18-.36-.33 0-.49-.05a.57.57 0 01-.23-.8 1.38 1.38 0 01.76-.53c-.32 0-.75-.06-.79-.38s.23-.46.49-.53a1.92 1.92 0 00.75-.22.51.51 0 01-.47-.59.51.51 0 01.68-.33c.25.12.39.44.67.46a.44.44 0 01.25-.47.45.45 0 01.52.12.93.93 0 00-.24.69.58.58 0 00.46.52.42.42 0 00.46-.44 1.06 1.06 0 00-.26-.41c-.1-.14-.15-.34 0-.45l.92-.17a.44.44 0 000 .7.44.44 0 00.63-.3.79.79 0 00-.38-.64 1.38 1.38 0 01-.54-.56c-.08-.24.14-.58.38-.5s.21.22.3.35a.5.5 0 00.46.27c.19 0 .33-.28.2-.42s-.36-.12-.41-.28.41-.34.38-.58-.35-.19-.57-.23a.48.48 0 010-.94.49.49 0 00.51.33.5.5 0 00.44-.43 1 1 0 010-.3.48.48 0 01.34-.2c.42-.1 1-.08 1.15.31a.71.71 0 01-.17.74 2.14 2.14 0 01-.67.43 1 1 0 01.62.2.37.37 0 010 .57c-.11.08-.28.06-.39.15s-.08.43.1.53a1 1 0 00.63.05 1.09 1.09 0 00.91.92 1.27 1.27 0 01.71-.71.59.59 0 01.76.48c0 .33-.37.55-.71.59a4.77 4.77 0 00-1 .08A1 1 0 0178 29a.94.94 0 001.1.63.39.39 0 01.33-.64c.42.1.39.79.78 1a1.06 1.06 0 01.19-.82c.2-.21.65-.15.66.14 0 .46-1 .51-.84 1a1.12 1.12 0 01.6 0c.18.08.32.32.21.49a.52.52 0 01-.5.14l-.67-.05c-.26 0-.56 0-.69.2a.46.46 0 00.26.61 1.33 1.33 0 00.74.05.74.74 0 00-.39.39.36.36 0 00.2.46c.19 0 .36-.12.5-.26s.39-.24.52-.09c0 .43-.15.48-.33.83a.39.39 0 00.2.54.32.32 0 00.17 0c.13 0 .18-.2.23-.32a1 1 0 01.69-.72c.34-.07.75.24.67.57a.73.73 0 01-.19.3 1.21 1.21 0 01-1 .29 1.1 1.1 0 00-.31 0 .23.23 0 00-.22.2c0 .1.11.18.18.26a.49.49 0 010 .66.24.24 0 01-.16.07c-.25 0-.22-.45-.46-.53s-.47.4-.76.34-.26-.33-.46-.4a.36.36 0 00-.25 0 1.38 1.38 0 00-.71.25.61.61 0 00-.24.67.39.39 0 00.61.18 2.68 2.68 0 00.18-.28c.06-.09.18-.17.28-.11s.09.21.18.29.37-.06.55-.17a.54.54 0 01.65.06.45.45 0 010 .63 2.34 2.34 0 01.74-.12.42.42 0 01.27.07c.21.17 0 .5-.16.7s-.37.54-.15.69a.36.36 0 00.4-.2c.11-.14.17-.32.29-.46a.36.36 0 01.47-.12c.16.13.1.39 0 .54s-.32.28-.39.46a6.13 6.13 0 00.7-.39.57.57 0 01.73.07.51.51 0 01-.24.72 1.53 1.53 0 01-.85.07 1.18 1.18 0 01.5.16.38.38 0 01.14.47c-.13.2-.43.16-.66.08a2.65 2.65 0 00-.85-.24.63.63 0 00-.47.12.34.34 0 00-.08.45c.14.19.44.11.66 0a1 1 0 01.6-.11.37.37 0 01.29.46c-.09.19-.39.26-.4.47s.25.29.42.21a1 1 0 00.36-.41.63.63 0 01.4-.35.37.37 0 01.38.5c-.07.16-.25.24-.39.35s-.21.35-.07.46c.24-.07.43-.26.66-.34s.58 0 .61.24-.27.42-.52.44-.55 0-.72.21c0 .22.37.29.36.51s-.19.23-.35.24a1.56 1.56 0 01-.79-.18.64.64 0 00-.39-.13c-.29 0-.39.39-.38.68a.5.5 0 000 .21c.1.17.36.15.53 0a3.91 3.91 0 01.47-.36c.17-.09.45 0 .49.14.08.35-.61.46-.58.81a.32.32 0 00.49.17.67.67 0 00.23-.56.37.37 0 01.07-.27.33.33 0 01.29 0c.14 0 .29.11.32.25s-.26.35-.39.54a.41.41 0 00.07.51.39.39 0 00.51 0c.18-.16.18-.43.25-.66s.38-.43.54-.25l-.15 1a1.1 1.1 0 01.61-.5c.27 0 .59.21.47.46s-.17.18-.24.29a.33.33 0 00.09.42.34.34 0 00.44-.05c.21-.26 0-.67.08-1 .22-.48.76-.16.72.27a.93.93 0 01-.68.87c-.2 0-.5.12-.43.31a2.85 2.85 0 011 0 2.59 2.59 0 00-.21.61c-.07.2-.31.39-.49.28s-.17-.33-.34-.39-.37.35-.61.51-.57 0-.83-.2-.68-.24-.79 0 0 .33 0 .49-.5.24-.8.19-.71 0-.68.33.48.47.34.72-.36.09-.55 0a.76.76 0 00-.59-.06.37.37 0 00-.22.49c.14.23.58.25.58.52s-.41.3-.49.54a.35.35 0 00.24.39.94.94 0 00.5 0c.22 0 .49-.1.57-.32a2.83 2.83 0 000-.41.42.42 0 01.59-.27.39.39 0 010 .63.66.66 0 111 .88c.22.14.5 0 .75-.08s.63 0 .62.27-.87.31-.89.72c0 .2.25.33.45.28a1.24 1.24 0 00.5-.34.77.77 0 01.54-.24.42.42 0 01.12.76 3.38 3.38 0 00-.34.11c-.11 0-.19.2-.1.29a.26.26 0 00.18 0c.27 0 .61-.11.77.12a.39.39 0 01-.08.47 1.26 1.26 0 01-.45.26 1.17 1.17 0 00.67.13 1 1 0 01.67.16c.17.15.18.5 0 .57s-.45-.23-.69-.36a.5.5 0 00-.57.07 6.47 6.47 0 00.82.44.73.73 0 00-.86.22.47.47 0 00.3.72c.29 0 .52-.3.81-.31a.44.44 0 01.43.33.49.49 0 01-.21.52c-.13.08-.31.13-.35.28s.17.32.35.29a1.54 1.54 0 00.49-.22.45.45 0 01.5 0c.18.21-.06.53-.31.67s-.55.32-.5.6.41.34.67.26a5.28 5.28 0 01.73-.33c.27-.06.61.12.57.39s-.63.33-.77.65c.48.16 1-.48 1.45-.27a.47.47 0 01.1.75 1.11 1.11 0 01-.75.11c-.26 0-.58 0-.66.3a.54.54 0 01.83.33.55.55 0 01-.69.57 1.07 1.07 0 01-.51-.61c-.18.06-.25.27-.36.42s-.37.25-.47.09.19-.49 0-.66a2.05 2.05 0 00-1 .21.49.49 0 00-.46-.71 1.05 1.05 0 01-.22.45.37.37 0 01-.45.09.46.46 0 01-.15-.45 1.21 1.21 0 000-.5c-.06-.16-.28-.27-.4-.16-.19.37.53.77.33 1.14a.34.34 0 01-.47.09.65.65 0 01-.25-.47c-.16.24-.45.5-.69.34s-.04-.17-.04-.39-.26-.5-.42-.34c0 .35-.11.81-.45.81s-.47-.48-.45-.85a.82.82 0 01-.21.57.37.37 0 01-.54 0c-.09-.15 0-.34-.08-.51a.39.39 0 00-.53-.22.25.25 0 00-.14.16c-.08.31.53.37.58.69s-.24.36-.45.3a1 1 0 01-.45-.45.82.82 0 01-.26.39.31.31 0 01-.42 0c-.08-.13 0-.35-.19-.37s-.19.12-.29.19a.36.36 0 01-.49-.11 1.11 1.11 0 01-.17-.53c-.09-.07-.21 0-.26.12a2.45 2.45 0 01-.09.32.39.39 0 01-.61 0 .89.89 0 01-.15-.66c-.12-.08-.27.1-.25.24s.12.27.15.41c.05.39-.46.6-.86.65.15.19.39.28.55.45s.2.52 0 .6-.31 0-.46-.12-.35-.11-.44 0a.67.67 0 00.64.44c.08.37-.33.41-.54.57s-.24.35-.27.63a21.56 21.56 0 00-.07 2.41c0 1.65.15 3.3.13 4.95H74.4a70.93 70.93 0 00.29-7.21.3.3 0 00-.08-.16.33.33 0 00-.14 0h-.62l.45-.58c-.17-.19-.55.09-.71-.1s.38-.58.22-.85c-.27-.09-.63.26-.81 0a.34.34 0 01.06-.42c.09-.12.22-.23.24-.38h-.62c.08-.22.15-.44.23-.67l-1.14.17c-.12-.24.31-.54.13-.73a.29.29 0 00-.16-.07.74.74 0 00-.36 0 .26.26 0 00-.22.25c0 .12.13.22.13.34s-.11.22-.23.24a.74.74 0 01-.36-.06 1.55 1.55 0 000 .43.35.35 0 01-.18.37c-.17.06-.32-.09-.48-.18s-.42-.05-.4.13a.43.43 0 00.13.17.43.43 0 01.11.39.28.28 0 01-.32.19c-.25-.09-.2-.52-.44-.63-.1.13 0 .3 0 .46s-.1.37-.24.31-.22-.23-.31-.14a.47.47 0 010 .43.33.33 0 01-.39.15.25.25 0 01-.1-.37c-.11-.1-.29 0-.4.11s-.26.24-.4.17-.12-.34 0-.45a4.46 4.46 0 01.5-.22c.15-.09.27-.31.16-.44h-.4v-.19c.14 0 .3-.14.3-.29s-.13-.25-.27-.29a2 2 0 01-.42-.11c-.12-.07-.21-.25-.12-.36s.28 0 .41.1.34 0 .33-.13-.37-.14-.42-.32.1-.21.22-.21.23 0 .35.06a.45.45 0 00.46-.35.46.46 0 00-.26-.52 1 1 0 00-.82.22c0-.24.09-.48.14-.73a.92.92 0 00-.82.74v-.63c-.12-.08-.28 0-.32.17s.07.69-.34.65c-.24 0-.44-.36-.66-.44s-.41 0-.62.21-.41.51-.53.2v-.22c0-.07-.37-.07-.41.11a2.82 2.82 0 000 .58c0 .2-.19.42-.36.32s-.11-.25-.06-.38a.73.73 0 00.09-.4c0-.27-.42-.29-.69-.25.12-.25.24-.57.06-.78a.74.74 0 00-.67-.1c-.24 0-.54 0-.64-.2a.42.42 0 01.28-.52 1.24 1.24 0 01.66 0 .88.88 0 01-.34-.26.29.29 0 01.07-.38.34.34 0 01.26 0c.25.08.46.25.7.35a.69.69 0 00.73 0c-.17-.25-.7-.07-.79-.36s.18-.35.36-.31a.84.84 0 01.44.35.26.26 0 01-.16-.41.3.3 0 01.46 0c.09.14.07.32.15.47s.54.18.71 0a1.11 1.11 0 00.14-.8c0-.19-.1-.41-.28-.44a.65.65 0 00-.34.13c-.11.05-.27.07-.33 0s.4-.5.2-.67a1.87 1.87 0 00-.53 0c-.18 0-.39-.11-.39-.29s.35-.33.59-.26.52.19.71 0a.15.15 0 00.07-.12c0-.26-.55-.05-.62-.3a1.25 1.25 0 01.5-.18c-.08-.28-.61-.22-.68-.5a.34.34 0 01.23-.34.63.63 0 01.62.09c.2.16.28.41.47.58s.57.14.59-.11-.29-.32-.51-.32-.52 0-.58-.25a.85.85 0 00.67-.29c-.26-.06-.6-.24-.52-.5s.41-.23.64-.15.51.21.7.05c.08-.42-.84-.42-.81-.84a.2.2 0 01.01-.35zm10.74-20.6c0-.07-.09-.13-.11 0s.09.16.11.04zm.22.22c0-.13.2-.25 0-.34-.01.18-.19.3 0 .38zm-.33.55v.23c.27.17.33-.38.11-.34 0 .11-.01.17-.11.15zm-3.45.11v.23h.34v-.34h-.22c-.01.11-.02.17-.12.15zm3 0c-.13 0-.18-.16-.23 0a.12.12 0 00.24.04zm1.22.23h.22v-.23H77zm-3.67.33c-.09 0-.22 0-.22.11s.23.05.23-.07zM75 30c.37.34.34-.41 0 0zm-1.45.45a.31.31 0 00-.22-.34c-.03.17-.05.38.18.33zm.78-.11h.22v-.24h-.22zm-1.78.55c0-.15.2-.1.22-.22-.16 0-.46-.48-.55-.22.27-.06.06.4.29.43zm2 .45c.31.17.31-.48.11-.45-.07.11-.19.2-.15.44zm3.34.22c.3.08.21-.23.33-.33-.28-.04-.39.08-.37.32zm-1.22.67c.13 0 .06-.17 0 0zm.66.44c.19.2.44 0 .45-.33-.33-.04-.52.03-.49.32zm-.33.22c0-.06-.09-.12-.11 0s.05.11.11-.01zm3.11 1a.11.11 0 00-.22 0c.11-.02.11.16.18-.01zm-6 .78c.58-.17.44.38.67.56.56-.56-.26-1.17-.78-1.34-.13.38.12.42.07.77zm-2-.44c0-.12-.09-.29-.11-.11s0 .27.07.1zm5.56 1c0-.26-.12-.48-.34-.56-.03.33-.14.69.3.55zm-2.45-.34c0-.06-.09-.12-.11 0s.05.11.07-.01zm-.11.45v.22h.22c.13-.16.12-.27-.11-.33-.05.06-.06.12-.15.1zm1.33 0c-.27.37.38-.27 0 0zm-1.44.43c-.09 0-.22 0-.22.12s.22-.01.22-.12zm2.89.12c0-.07-.09-.13-.11 0s.05.11.07 0zm.11.22c.14 0 .15.14.33.11a.29.29 0 00-.22-.33c-.04.11-.11.11-.11.22zm-5.56.55c.34-.18.43-.09.67-.22-.22 0-.14-.3-.45-.22-.04.22-.34.14-.26.44zm2.22.12a.3.3 0 00-.22-.34c-.03.18-.05.39.18.34zm5.34.11c0-.3-.23-.29-.44-.34-.14.36.32.16.44.34zm-9.71.11c-.09 0-.22 0-.22.11s.21 0 .22-.11zm-.56.11c-.08 0-.22 0-.22.11s.22 0 .22-.11zm3.45.11c.34.3-.3-.34 0 0zm6.45 0c-.11 0-.13-.09-.22-.11-.31.18.16.37.22.11zm-7.63.56c0-.07-.09-.13-.12 0s.05.12.12 0zm6.89-.12c-.09 0-.22 0-.22.12s.18-.01.18-.12zm-4.56.89c.22-.35.31-.81-.33-.77-.1.42 0 .69.29.77zm7.45-.77h-.33c-.09 0-.22 0-.22.11.12-.06.53.11.51-.11zm-5.6.22a.11.11 0 00-.18 0c.08 0 .13.16.18 0zm-4.67.33c0-.06-.09-.12-.11 0s.09.13.11 0zm5.89.45c.43.09.44-.24.56-.45-.21 0-.24-.12-.44-.11a.73.73 0 00-.12.56zm2.23-.45c-.13 0-.32 0-.34.11.14-.01.32.02.34-.11zm-4.45.22c0-.06-.09-.12-.11 0s.09.13.11 0zm1.33.67c0-.24.4 0 .56-.11v-.44c-.44-.26-.87.17-.56.55zM83 40.78c.21.34.63-.22.34-.34-.05.22-.41.08-.34.34zm-12.89 0c0-.12-.09-.29-.12-.11s.01.33.08.11zm12.56.44c-.21 0-.08-.36-.33-.33-.16.28.19.63.29.33zm-8.34.56c0-.09-.29-.13-.33 0s.39.22.29 0zm-4.56 1.44c.44-.17.68.43.89.12-.22-.34-.71-.4-.89-.78.21-.16.3-.6-.11-.67.03.4-.05.78.07 1.33zm-1.11-.88h.22v-.23h-.22zm2 .33c-.16 0-.19-.18-.33-.22-.14.23.25.55.29.22zm-1.66.22c-.09-.16-.35-.16-.55-.22-.2.33.93.33.55.22zm4.9 1c.29 0 .39.28.66.34 0-.14.13-.07.23 0 0-.18 0-.39.22-.34-.13-.47-.59-.6-.67-1.11-.18.39-.49.6-.49 1.11zm5.89-.44c.05-.36.72-.09.56-.67-.35.01-.94.36-.61.67zM72.07 43c0-.06-.09-.12-.11 0s.09.13.11 0zm1 .11c0-.11-.09-.28-.11-.11s.04.29.11.11zm-4 .56c0-.21.13-.25.12-.45-.39-.08-.45.43-.13.45zm3.45.22c.5.06.37-.58 0-.55-.22.21-.02.28-.01.55zm1.22-.11c-.08 0-.21 0-.22.11s.21 0 .21-.11zm7.57.45c0-.07-.09-.13-.11 0s.08.12.1 0zm-13.8.77c.29 0 .65.07.66-.22-.17-.15-.67-.1-.66.22zm11-.22c0-.11-.2-.14-.23 0s.14.07.24 0zm6 .22c0-.06-.09-.12-.11 0s.1.13.12 0zm-16 .34c0-.16.18-.19.22-.34-.23-.09-.5.29-.22.34zm11.56.33c0-.26.39-.21.34-.55-.28-.05-.49.53-.34.55zm2.12-.33c.06 0 .13 0 .11.11h.22c0-.13 0-.32-.11-.33 0 .14-.2.1-.22.22zm-12.68.11c-.3.34.34-.3 0 0zm12.34-.11c-.08 0-.22 0-.22.11s.22 0 .22-.11zm-1.33.55c.36 0 1.22-.1.89-.44-.2.25-.82.07-.89.44zm.89.45c.32 0 .56 0 .66-.22-.22.06-.77-.18-.66.22zm-.45.44v.45c.36.06.52-.08.78-.11.03-.4-.58-.5-.74-.34zm-9.34.11c-.08 0-.22 0-.22.12s.22-.01.22-.12zm1.78.56c0-.28-.17-.35-.33-.44.04.21.04.47.33.44zm.89-.33c-.27.37.37-.27 0 0zm4.78.89c.36 0 .64-.48.22-.56.1.36-.17.34-.22.55zm1-.23c-.14 0-.15-.14-.33-.11-.17.33.38.33.33.11zm-11.9.45c.34.3-.3-.34 0 0zm8.12.55c-.12 0-.17-.16-.22 0s.19.14.22 0zm1.78.23c.26 0 .42 0 .45-.23-.26-.03-.42.03-.45.22zm-4.07.44c.18-.31-.48-.31-.45-.11.17-.02.21.13.45.11zm8.89.67c.36.1.16-.36.34-.45-.34-.03-.41.16-.38.45zm-8.23.56c-.27 0-.08.5.23.33-.18-.36-.06-.6 0-1-.16 0-.19-.18-.34-.22-.41.27-.14.61.07.89zm1.78-.34v.22h.23c.12-.16.12-.27-.12-.33-.04.07-.05.13-.15.11zm-10.34.22c-.64-.32-.29.28 0 0zm1.67.56c-.15 0-.1-.19-.22-.22-.17.23.13.53.18.22zm12.45.22c.33.17.33-.49 0-.33zm1.45.11a.54.54 0 01.11-.33c-.14 0-.15-.14-.33-.11a.46.46 0 00.18.44zm1.78-.33s-.69-.16-.33 0c-.12-.03.41.21.29 0zm-10 .11c-.45-.39-.26.36 0 0zm9.45-.11c-.13 0-.31 0-.33.11.08-.02.27.02.28-.11zm-16.79.11c-.08 0-.22 0-.22.11s.17 0 .17-.11zm12.23.45h.45c0-.17 0-.41-.11-.45-.09.23-.35.22-.39.45zm5.45.11c.6.13.13-.74 0-.45.21.03-.2.19-.05.45zm-18.57-.23c-.13 0-.31 0-.33.12.11-.02.26.02.28-.12zM83 51.9a.55.55 0 00.12.33c.29 0 .36-.15.33-.44a.62.62 0 00-.45.11zm-.55.22c.11 0 .13.09.22.11 0-.17 0-.38-.22-.33zm2.67.22h.33c0-.25 0-.41-.22-.44-.08.15-.23.21-.15.44zm1.33 0c-.26 0-.47-.7-.78-.33.22.05.53.61.74.33zm-6-.22v.22h.22c0-.06 0-.13.11-.11V52h-.22c-.05.08-.06.14-.15.12zm3.78.22a.11.11 0 00-.22 0c-.01.14.08.07.18 0zm-17.46.34c0-.07 0-.13.11-.11 0-.14 0-.27-.22-.23-.02.13-.06.32.07.34zm3.34.11c-.09-.18-.36-.17-.34-.45h-.37v.23c.11 0 .13.09.22.11.08-.38.38.49.45.11zm13.78.11c.16.23.53-.26.45.33.46-.28.42.14.78.23.22-.22.49-.81.11-1-.32.45-1.23-.02-1.38.44zm-18.12.67c-.08-.34.19-.33.11-.67-.2-.1-.33-.27-.56-.33a.64.64 0 00.41 1zm13.68-.89a.12.12 0 00-.23 0c.09-.01.14.16.19 0zm-7.45.11c0 .37-.49-.29-.56.11.06.32.89.23.56-.11zm-4.23.55c0 .49.14.76.56.78.29-.34.35-.33.77-.11.1-.73-.67-.59-.89-1-.14.15-.33.22-.48.33zm-1.89.45c.44.17.72-.38.44-.56-.06.32-.4.31-.48.56zm19.57-.33c0 .43.41.4.67.55 0-.31-.38-.22-.22-.67a.65.65 0 00-.49.12zm-13.68.22c.17 0 .41 0 .45-.11-.22-.15-.46-.15-.49.11zM82 53.9c.22 0 .48 0 .45-.33-.4-.1-.39.17-.45.33zm2.67-.22c-.08 0-.22 0-.22.11s.18 0 .18-.11zm-17.12.66c-.3 0-.39-.27-.67-.33-.1.33.47.59.63.33zm17.12-.22c-.57.27.39.29 0 0zm-15.12.34c.31.14.38-.44.22-.12-.19 0-.46.03-.26.12zm1.22-.23c-.08 0-.22 0-.22.11s.18 0 .18-.11zm-5.11.34c-.13 0-.32 0-.34.11.09-.02.28.02.3-.11zm.55.33c.17 0 .41 0 .45-.11-.26.1-.48-.39-.56-.11.05.02.09.09.07.22zm18.13-.11c-.18-.06-.6-.43-.78-.11.25-.05.59.39.74.11zm-14.68.33c.27-.13-.12-.52-.22-.22.1 0 .06.2.18.22zm-2 .11c.28 0 .35-.17.44-.33-.33-.03-.51.04-.48.33zm-.78.23a.43.43 0 00.45-.45H67c0 .21-.17.25-.16.45zm-4-.11c.08 0 .13.09.11.22a4.58 4.58 0 001.11 0c-.03-.45-1.1-.63-1.26-.22zm13.67.55c0-.19.34-.69.12-.78-.17.11-.46.61-.16.78zm-11 .56c.27 0 .34-.18.55-.22 0-.41 0-.77.45-.67 0-.29-.16-.37-.45-.34 0 .63-.76.47-.59 1.23zm20.12-1.11c0-.12-.19-.14-.22 0 .09-.02.13.16.18 0zm-21.35.44c0 .27.21.24.11.56.28 0 .35-.18.56-.23-.08-.34-.08-.21 0-.55-.39-.06-.47.16-.71.22zm6-.11c0-.06-.09-.13-.11 0s.06.13.08 0zm-.89.44c-.32 0-.2-.47-.56-.44-.3.19.31.77.53.44zm18.12-.22a.11.11 0 00-.22 0c-.01.1.09.1.19 0zm-9.89.22a.3.3 0 00.34-.22c-.21.01-.43-.01-.37.22zm-13.79.23c0-.16.18-.19.22-.34-.26-.09-.53.29-.25.34zm13 .11c.21-.05.48 0 .44-.34-.21-.2-.45.04-.46.34zm-2.45 0a.31.31 0 00-.22-.34.31.31 0 00.2.34zm11.12-.11c.23 0 .3.22.45.33.25-.19-.4-.81-.47-.33zm-12.34 0c-.34.37.41.33 0 0zm1.67.33c0-.13.19-.25 0-.33-.04.13-.22.25-.02.33zm-3.12.11c0 .31.2.48.56.45V57c0-.06 0-.13-.11-.11s0 .13-.11.11 0-.31-.11-.33-.12.14-.25.12zm1.34 0c-.09 0-.22 0-.22.11s.19 0 .2-.11zm-2.34.56c.12.16.51-.41.11-.34v.11a1.67 1.67 0 01-.13.23zm15.68 0c-.2 0-.56-.11-.44.22a.66.66 0 00.78.11 1.13 1.13 0 00-.34-.67zm-16.23.11a.12.12 0 00-.23 0c.03.13.11.07.21 0zm3.55 0a.11.11 0 00-.22 0c.01.13.11.07.2 0zm-.11.89c.27 0 .25-.2.56-.11-.07-.29 0-.4.33-.34 0-.26-.11-.48-.33-.55-.05.19-.14 0-.33 0-.04.44-.18.44-.25 1zm3.78-.45c.35.06.5-.09.45-.44-.3.13-.66-.21-.67 0 .18.03.24.19.2.44zm1.23-.22c.53 0 1 0 1 .45.31 0 .76.09.78-.23-.09 0-.13-.09-.11-.22-.18-.32-.61.52-.56-.22-.47.19-.84-.18-1.13.22zm-9.23.89c-.38-.08-.44.43-.11.45-.09-.42.29-.38.44-.56 0 .13 0 .32.11.33s0-.13.11-.11.09-.13.12-.22c-.63 0-.07-.7-.34-.89-.05.43-.51.43-.35 1zm6.89-.67c.33.17.33-.49 0-.33zm5.78 0c.26 0 .42 0 .45-.22a.27.27 0 00-.47.22zm5.12 0c.06.51.46.28.89.23.06-.3-.46-.57-.56-.34.28.1-.25.35-.35.11zm-14.48.1c0-.06-.09-.12-.11 0s.09.14.11 0zm15.79.45c0-.28-.17-.35-.33-.45-.02.29.17.36.33.46zm-20 .78c.3.07.21-.23.33-.34h-.33zm-.45.33c.19 0 .07.31.23.33s.31-.2.22-.55c-.27-.02-.43.04-.46.23zm6.12.11c.34-.08.33.19.67.11.14-.62-.65-.47-.68-.1zm2.89.34c.18-.31-.48-.31-.44-.12s.2.17.43.11z"/>
  </g>
</svg>
