<svg xmlns="http://www.w3.org/2000/svg" width="102.5" height="45.39" viewBox="0 0 102.5 45.39">
  <defs/>
  <path fill="#13253a" d="M97.06 21.73a12.54 12.54 0 00.32-2.73A12.4 12.4 0 0084.93 6.63a10.91 10.91 0 00-3.09.57 7.61 7.61 0 00-5.3 5.48 7.1 7.1 0 00-.16 1.73 5 5 0 002.31 4.35c1.51.82 3.78.19 4.25-1.46a3.08 3.08 0 01-2.38 3.6 4.58 4.58 0 01-4.3-1.63c-1.52-1.75-1.59-3.81-.83-7.55C76.67 5.57 69.66 0 63.44 0c-3.95 0-7.16 1.3-9.23 4.37a17.14 17.14 0 00-2.11 8.5c0 4 1.52 7.88 5.48 9.88a7 7 0 005.18.36 3.19 3.19 0 002.37-1.89 5.34 5.34 0 00-1.55-6.35 5.25 5.25 0 015 2.51 5.55 5.55 0 01.63 2.43c.16 4.22-3.77 8-8 8.17S53 25.35 51.14 21.55a16.48 16.48 0 01-1.27-10c-.51-.22-1-.41-1.48-.56-6.9-2.12-10.35-2.39-15.92.8s-4.36 7.22-7.2 12.3c-2 3.62-4.08 5.37-8.36 4.78C13 28.37 9.62 24 6.73 23.51 3 22.85 0 26.63 0 26.63s3.71-1.53 5.57-1 2.22.8 5.67 5.31 9.29 4.24 12.47 3.71 6.62-2.42 11.14-4.77c.23-.12.45-.21.67-.3a4.35 4.35 0 002-1.44 5.53 5.53 0 012.72-1.91 8 8 0 016 .66c1.6.94 2.56 3.51 2.52 5.37a3.47 3.47 0 01-.34 1.45c-.79 1.51-2.8 1.81-4.51 1.81 1.63-.63 2.39-3.4 1.53-4.91a4.23 4.23 0 00-4.31-2 5.43 5.43 0 00-2.54 1.1 4.78 4.78 0 00-1.9 3.81A9.8 9.8 0 0055.58 37a10.62 10.62 0 0020.85-.53l.68-5.59a9.24 9.24 0 011-3.25 7.22 7.22 0 015.07-3.77 5.66 5.66 0 015.65 2.49 5.09 5.09 0 01.7 2.52 3.55 3.55 0 01-1.27 2.86 2.25 2.25 0 01-3-.21 1.78 1.78 0 002.12-1.06 2.3 2.3 0 00-.58-2.4 3.31 3.31 0 00-2.4-.84c-6.07.15-6.48 8.19-4.82 11.5a12.43 12.43 0 1017.43-17z"/>
</svg>
